<svg id="Layer_1" data-name="Layer 1" xmlns="http://www.w3.org/2000/svg" viewBox="0 0 30 30"><defs><style>.cls-1{fill:#ededed;}</style></defs><circle class="cls-1" cx="15" cy="15.06" r="15"/><path d="M12.33,23.41A8.72,8.72,0,0,1,13.91,6.46L12.75,7.92a.49.49,0,0,0,.08.7.45.45,0,0,0,.31.11.49.49,0,0,0,.39-.19l1.86-2.35s0,0,0-.06a.35.35,0,0,0,.05-.08s0-.07,0-.11,0,0,0-.06v0s0,0,0,0a.14.14,0,0,1,0-.07.36.36,0,0,0,0-.09.43.43,0,0,1,0-.07l-.07-.08,0,0L13,3.63a.5.5,0,0,0-.62.78l1.35,1.07A9.72,9.72,0,0,0,12,24.36a.45.45,0,0,0,.16,0,.5.5,0,0,0,.15-1Z"/><path d="M24.72,15.1a9.78,9.78,0,0,0-6.95-9.32.49.49,0,0,0-.62.34.5.5,0,0,0,.33.62,8.72,8.72,0,0,1-1.45,17l1.13-1.57a.49.49,0,0,0-.11-.7.51.51,0,0,0-.7.11L14.6,24s0,0,0,0a1,1,0,0,0,0,.1.3.3,0,0,0,0,.1.43.43,0,0,0,0,0s0,0,0,0a.44.44,0,0,0,0,.1l0,.08a.35.35,0,0,0,0,.08.23.23,0,0,0,.07.07s0,0,0,0l2.43,1.76a.46.46,0,0,0,.29.1.51.51,0,0,0,.41-.21.5.5,0,0,0-.12-.7l-1.33-1A9.74,9.74,0,0,0,24.72,15.1Z"/><path d="M16.64,20l0-.37a4.63,4.63,0,0,0,1.4-.83l.31.15a1,1,0,0,0,1.35-.43l.6-1.06A1.06,1.06,0,0,0,20,16.1l-.3-.21a4.4,4.4,0,0,0,0-1.67L20,14a1.06,1.06,0,0,0,.3-1.39l-.6-1.07a1,1,0,0,0-1.35-.43l-.31.15a5.08,5.08,0,0,0-1.4-.83l0-.36a1,1,0,0,0-1-1H14.4a1,1,0,0,0-1,1l0,.36a5.08,5.08,0,0,0-1.4.83l-.31-.15a1,1,0,0,0-1.35.43l-.6,1.07A1.06,1.06,0,0,0,10,14l.3.21a4.76,4.76,0,0,0-.08.83,5,5,0,0,0,.08.84l-.3.21a1.06,1.06,0,0,0-.3,1.39l.6,1.06a1,1,0,0,0,1.35.43l.31-.15a4.76,4.76,0,0,0,1.4.83l0,.37a1,1,0,0,0,1,1h1.2A1,1,0,0,0,16.64,20Zm-2.28-.09-.06-.67-.07-.37-.31-.09a3.87,3.87,0,0,1-1.54-.92l-.3-.24-.94.41-.59-1.15.83-.62L11.3,16a4.11,4.11,0,0,1-.11-.91,3.87,3.87,0,0,1,.11-.89l.07-.38-.83-.67L11.19,12l.94.44.26-.26a3.78,3.78,0,0,1,1.51-.9l.37-.13.13-1.06,1.24.05.06.67.07.37.31.1a3.73,3.73,0,0,1,1.54.91l.3.24.94-.41.59,1.15-.54.39-.28.24.07.32a4.18,4.18,0,0,1,.11.91,4,4,0,0,1-.11.9l-.07.38.83.67-.65,1.08-.59-.28-.36-.14-.25.24a3.82,3.82,0,0,1-1.54.91l-.34.14-.13,1Z"/><path d="M17.39,15.05A2.39,2.39,0,1,0,15,17.45,2.39,2.39,0,0,0,17.39,15.05ZM15,16.45a1.4,1.4,0,1,1,1.39-1.4A1.4,1.4,0,0,1,15,16.45Z"/></svg>