<svg id="Layer_1" data-name="Layer 1" xmlns="http://www.w3.org/2000/svg" viewBox="0 0 30 30"><defs><style>.cls-1{fill:#ededed;}</style></defs><circle class="cls-1" cx="15" cy="15" r="15"/><path d="M20.81,10.72,17,6.76a1.34,1.34,0,0,0-.94-.4H11.1A2.3,2.3,0,0,0,8.81,8.65V19.49a2.26,2.26,0,0,0,1.41,2.11.43.43,0,0,0,.19,0,.49.49,0,0,0,.46-.3.5.5,0,0,0-.27-.66,1.29,1.29,0,0,1-.79-1.19V8.65A1.29,1.29,0,0,1,11.1,7.36h4.76v2.78a1.68,1.68,0,0,0,1.68,1.67h2.65v7.68a1.3,1.3,0,0,1-.76,1.18.5.5,0,0,0-.26.66.51.51,0,0,0,.66.25,2.29,2.29,0,0,0,1.36-2.09V11.64A1.28,1.28,0,0,0,20.81,10.72Zm-3.95-.59v-2l2.64,2.72h-2A.68.68,0,0,1,16.86,10.13Z"/><path d="M18.54,19.65,18.16,19a.86.86,0,0,0-1.1-.35l-.09.05a3.29,3.29,0,0,0-.74-.44v-.12a.84.84,0,0,0-.84-.78h-.76a.84.84,0,0,0-.84.78v.12a3.29,3.29,0,0,0-.74.44l-.09-.05a.86.86,0,0,0-1.1.35l-.38.68a.86.86,0,0,0,.25,1.12l.09.06a3.39,3.39,0,0,0,0,.9l-.09.06a.86.86,0,0,0-.25,1.12l.38.68a.86.86,0,0,0,1.1.35l.09-.05a3.22,3.22,0,0,0,.74.44v.12a.85.85,0,0,0,.84.78h.76a.85.85,0,0,0,.84-.78v-.12a3.29,3.29,0,0,0,.74-.44l.09.05a.86.86,0,0,0,1.1-.35l.38-.68a.86.86,0,0,0-.25-1.12l-.09-.06a3.39,3.39,0,0,0,0-.9l.09-.06A.86.86,0,0,0,18.54,19.65Zm-1.37,1.1a2.46,2.46,0,0,1,.06.53,2.52,2.52,0,0,1-.07.57l0,.34.49.34-.25.44-.57-.27-.26.25a2.31,2.31,0,0,1-.88.53l-.36.12,0,.63h-.48l-.07-.65-.32-.1a2.19,2.19,0,0,1-.91-.54l-.28-.23-.54.26-.24-.44.51-.39-.08-.33a2.46,2.46,0,0,1-.06-.53,2.52,2.52,0,0,1,.07-.57l0-.33L12.4,20l.24-.44.59.25.24-.23a2.35,2.35,0,0,1,.91-.54l.33-.13,0-.61h.48l.07.65.32.1a2.21,2.21,0,0,1,.87.5l.28.29.58-.28.25.44-.52.39Z"/><path d="M15,19.58a1.7,1.7,0,1,0,1.7,1.7A1.7,1.7,0,0,0,15,19.58ZM15,22a.7.7,0,1,1,.7-.7A.7.7,0,0,1,15,22Z"/></svg>