<svg id="Layer_1" data-name="Layer 1" xmlns="http://www.w3.org/2000/svg" viewBox="0 0 30 30"><defs><style>.cls-1{fill:#ededed;}.cls-2{fill:#050505;}</style></defs><circle class="cls-1" cx="15" cy="14.99" r="15"/><path class="cls-2" d="M22.47,17a7.86,7.86,0,0,0,.24-1.87A7.73,7.73,0,0,0,19.5,8.88a.5.5,0,0,0-.59.81,6.72,6.72,0,0,1,2.8,5.46,7.09,7.09,0,0,1-.17,1.45,2.79,2.79,0,0,0-.58-.07,2.61,2.61,0,1,0,1.51.49ZM21,20.74a1.61,1.61,0,1,1,1.6-1.61A1.61,1.61,0,0,1,21,20.74Z"/><path class="cls-2" d="M7.77,15.3h0a.5.5,0,0,0,.5-.48,6.73,6.73,0,0,1,4.3-5.92,2.6,2.6,0,1,0-.19-1,7.73,7.73,0,0,0-5.11,6.88A.51.51,0,0,0,7.77,15.3Zm7.23-9a1.61,1.61,0,1,1-1.61,1.6A1.61,1.61,0,0,1,15,6.33Z"/><path class="cls-2" d="M17.39,21.42a6.84,6.84,0,0,1-6.2-.76,2.6,2.6,0,1,0-2.1,1.08,2.56,2.56,0,0,0,1.34-.39,7.7,7.7,0,0,0,7.31,1,.5.5,0,0,0-.35-.94ZM7.48,19.13a1.61,1.61,0,1,1,2.74,1.14.59.59,0,0,0-.19.13s0,0,0,0a1.61,1.61,0,0,1-2.54-1.31Z"/></svg>