<svg id="Layer_1" data-name="Layer 1" xmlns="http://www.w3.org/2000/svg" viewBox="0 0 30 30"><defs><style>.cls-1{fill:#ededed;}</style></defs><circle class="cls-1" cx="15" cy="15" r="15"/><path d="M20.5,14.5h-5v-5a1,1,0,0,0-1-1h-4a2,2,0,0,0-2,2v9a2,2,0,0,0,2,2h9a2,2,0,0,0,2-2v-4A1,1,0,0,0,20.5,14.5Zm-11-4a1,1,0,0,1,1-1h4v5h-5Zm0,9v-4h5v5h-4A1,1,0,0,1,9.5,19.5Zm11,0a1,1,0,0,1-1,1h-4v-5h5Z"/><path d="M21.5,6.5h-4a1,1,0,0,0-1,1v5a1,1,0,0,0,1,1h5a1,1,0,0,0,1-1v-4A2,2,0,0,0,21.5,6.5Zm1,6h-5v-5h4a1,1,0,0,1,1,1Z"/></svg>