<svg id="Layer_1" data-name="Layer 1" xmlns="http://www.w3.org/2000/svg" viewBox="0 0 30 30"><defs><style>.cls-1{fill:#ededed;}</style></defs><circle class="cls-1" cx="15.04" cy="15" r="15"/><path d="M20.53,7.05H9.62a2.5,2.5,0,0,0-2.5,2.5v7.87a2.5,2.5,0,0,0,2.5,2.5h5v2H11.25a.5.5,0,0,0-.5.5.5.5,0,0,0,.5.5h7.64a.5.5,0,0,0,.5-.5.5.5,0,0,0-.5-.5H15.57v-2h5a2.51,2.51,0,0,0,2.5-2.5V9.55A2.51,2.51,0,0,0,20.53,7.05ZM22,17.42a1.5,1.5,0,0,1-1.5,1.5H9.62a1.5,1.5,0,0,1-1.5-1.5V9.55a1.5,1.5,0,0,1,1.5-1.5H20.53A1.5,1.5,0,0,1,22,9.55Z"/><path d="M19,14.11a3.93,3.93,0,0,0,0-1.25l.19-.14a.94.94,0,0,0,.27-1.24L19,10.62a.94.94,0,0,0-1.22-.39l-.19.09a4,4,0,0,0-1-.62l0-.23a1,1,0,0,0-.94-.87h-1a1,1,0,0,0-.94.87l0,.23a4,4,0,0,0-1.05.62l-.19-.09a.94.94,0,0,0-1.22.39l-.48.86A1,1,0,0,0,11,12.72l.19.13a4.72,4.72,0,0,0-.05.64,4.44,4.44,0,0,0,.05.62l-.19.14a1,1,0,0,0-.27,1.24l.48.86a.94.94,0,0,0,1.22.39l.19-.09a4,4,0,0,0,1.05.62l0,.23a1,1,0,0,0,.94.87h1a1,1,0,0,0,.94-.87l0-.23a4.15,4.15,0,0,0,1-.62l.19.09A.94.94,0,0,0,19,16.35l.48-.86a.94.94,0,0,0-.27-1.24Zm-1-1.34a3.61,3.61,0,0,1,.08.72,3.78,3.78,0,0,1-.08.72l-.05.36.27.19h0l.4.24-.4.84-.83-.37-.24.24a3,3,0,0,1-1.19.71l-.35.12,0,.35v.48l-.9.05-.05-.55-.06-.36-.32-.09a3,3,0,0,1-1.18-.7l-.29-.26-.71.4-.5-.8.72-.55-.08-.31a3.51,3.51,0,0,1-.08-.71,3.19,3.19,0,0,1,.08-.7l.07-.37L11.56,12l.4-.84.49.24.35.12.24-.23a2.82,2.82,0,0,1,1.17-.7l.36-.13,0-.35V9.6l.9,0,.09.9.34.1a3,3,0,0,1,1.2.72l.29.23.69-.39.5.8-.72.53Z"/><path d="M15.07,11.46a2,2,0,1,0,2,2A2,2,0,0,0,15.07,11.46Zm0,3a1,1,0,1,1,1-1A1,1,0,0,1,15.07,14.51Z"/></svg>