<svg xmlns="http://www.w3.org/2000/svg" id="b0685c36-3596-4ca9-8eee-9686fde5e87c" data-name="Layer 1" viewBox="0 0 110 110"><defs><style>.b0415d32-c5c7-4696-9727-7c1e537e3887{fill:#f7f7f7;}.b32306bd-63ca-42d3-a7ee-3c4c7bb4b218{fill:#212121;}</style></defs><title>Cenit_IO</title><circle class="b0415d32-c5c7-4696-9727-7c1e537e3887" cx="55.06" cy="54.98" r="55"></circle><path class="b32306bd-63ca-42d3-a7ee-3c4c7bb4b218" d="M64.9,51.32V42.6a7.34,7.34,0,0,0-7.33-7.34h-5a7.34,7.34,0,0,0-7.33,7.34v8.72A6.34,6.34,0,0,0,40,57.55V68.36a6.34,6.34,0,0,0,6.34,6.34H63.74a6.34,6.34,0,0,0,6.34-6.34V57.55A6.34,6.34,0,0,0,64.9,51.32ZM52.55,37.26h5A5.34,5.34,0,0,1,62.9,42.6v8.61H47.22V42.6A5.34,5.34,0,0,1,52.55,37.26Zm15.53,31.1a4.34,4.34,0,0,1-4.34,4.34H46.38A4.34,4.34,0,0,1,42,68.36V57.55a4.34,4.34,0,0,1,4.34-4.34H63.74a4.34,4.34,0,0,1,4.34,4.34Z"></path></svg>
