<svg id="Layer_1" data-name="Layer 1" xmlns="http://www.w3.org/2000/svg" viewBox="0 0 30 30"><defs><style>.cls-1{fill:#ededed;}</style></defs><circle class="cls-1" cx="15" cy="15.02" r="15"/><path d="M20.06,14.52H11.77a2.17,2.17,0,0,0,.36-1.2,2.15,2.15,0,0,0-.35-1.17h8.28A2.19,2.19,0,0,0,22.2,10.4a2.12,2.12,0,0,0,0-.44,2.19,2.19,0,0,0-2.18-2.19l-.12,0H8.26a.5.5,0,0,0-.5.5.5.5,0,0,0,.5.5h10A2.15,2.15,0,0,0,17.87,10a2.17,2.17,0,0,0,.36,1.2H10.07l-.13,0a2.19,2.19,0,0,0-2.18,2.19h0a2.19,2.19,0,0,0,2.18,2.19h8.28a2.16,2.16,0,0,0,0,2.37H9.94a2.19,2.19,0,0,0-2.18,2.19h0a2.19,2.19,0,0,0,2.18,2.19h11.8a.5.5,0,0,0,.5-.5.5.5,0,0,0-.5-.5h-10a2.19,2.19,0,0,0,.35-1.19,2.15,2.15,0,0,0-.35-1.18h8.28a2.19,2.19,0,0,0,2.18-2.19h0A2.19,2.19,0,0,0,20.06,14.52Zm-8.93-1.19a1.19,1.19,0,1,1-1.19-1.17H10A1.18,1.18,0,0,1,11.13,13.33Zm8.93-4.54a1.16,1.16,0,1,1-.06,0Zm0,6.74a1.18,1.18,0,1,1-1.19,1.18,1.18,1.18,0,0,1,1.19-1.18Zm-8.93,4.55A1.19,1.19,0,1,1,9.94,18.9h0A1.18,1.18,0,0,1,11.13,20.08Z"/></svg>