<svg id="Layer_1" data-name="Layer 1" xmlns="http://www.w3.org/2000/svg" viewBox="0 0 30 30"><defs><style>.cls-1{fill:#ededed;}.cls-2{fill:#050505;}</style></defs><circle class="cls-1" cx="15" cy="14.97" r="15"/><path class="cls-2" d="M15,15.55a1.93,1.93,0,1,0-1.93-1.93A1.92,1.92,0,0,0,15,15.55Zm0-2.86a.93.93,0,1,1-.93.93A.93.93,0,0,1,15,12.69Z"/><path class="cls-2" d="M16.08,15.86H13.92a1.75,1.75,0,0,0-1.74,1.75.5.5,0,0,0,.5.5.51.51,0,0,0,.5-.5.75.75,0,0,1,.74-.75h2.16a.75.75,0,0,1,.74.75.51.51,0,0,0,.5.5.5.5,0,0,0,.5-.5A1.75,1.75,0,0,0,16.08,15.86Z"/><path class="cls-2" d="M15,9.54A5.49,5.49,0,1,0,20.49,15,5.49,5.49,0,0,0,15,9.54Zm0,10A4.49,4.49,0,1,1,19.49,15,4.5,4.5,0,0,1,15,19.52Z"/><path class="cls-2" d="M9.64,19.66l-.93.93A1.69,1.69,0,0,0,8,20.42,1.58,1.58,0,1,0,9.58,22a1.51,1.51,0,0,0-.17-.7l.93-.93a.5.5,0,0,0,0-.71A.5.5,0,0,0,9.64,19.66ZM8,22.58a.58.58,0,1,1,0-1.16.59.59,0,0,1,.41.17h0a.56.56,0,0,1,.16.4A.58.58,0,0,1,8,22.58Z"/><path class="cls-2" d="M20,10.54a.49.49,0,0,0,.35-.15l1-1a1.57,1.57,0,1,0-.93-1.43,1.61,1.61,0,0,0,.19.75l-1,1a.5.5,0,0,0,0,.71A.47.47,0,0,0,20,10.54Zm2-3.18a.58.58,0,0,1,.58.58.61.61,0,0,1-1,.43.57.57,0,0,1-.18-.43A.58.58,0,0,1,22,7.36Z"/><path class="cls-2" d="M22,20.42a1.69,1.69,0,0,0-.71.17l-1-1a.5.5,0,0,0-.7,0,.5.5,0,0,0,0,.71l1,1a1.51,1.51,0,0,0-.17.7A1.58,1.58,0,1,0,22,20.42Zm0,2.16a.58.58,0,0,1-.58-.58.6.6,0,0,1,.16-.41h0a.59.59,0,0,1,.41-.17.58.58,0,0,1,0,1.16Z"/><path class="cls-2" d="M8,9.59a1.55,1.55,0,0,0,.71-.17l1,1a.48.48,0,0,0,.7,0,.5.5,0,0,0,0-.71l-1-1A1.51,1.51,0,0,0,9.58,8,1.58,1.58,0,1,0,8,9.59ZM8,7.43A.58.58,0,1,1,7.42,8,.58.58,0,0,1,8,7.43Z"/></svg>