<svg id="Layer_1" data-name="Layer 1" xmlns="http://www.w3.org/2000/svg" xmlns:xlink="http://www.w3.org/1999/xlink" viewBox="0 0 30 30"><defs><style>.cls-1,.cls-4{fill:none;}.cls-2{clip-path:url(#clip-path);}.cls-3{fill:#ededed;}.cls-4{stroke:#050505;stroke-linecap:round;stroke-linejoin:round;}</style><clipPath id="clip-path"><rect class="cls-1" x="191.77" y="-262.79" width="459.72" height="331.91"/></clipPath></defs><g class="cls-2"><image width="1920" height="1030" transform="translate(-23 -378.31) scale(0.48)" xlink:href="../../Cenit%20IO%20_%20integration%20Platform%20-%20Google%20Chrome%203_2_2022%2011_36_55.png"/></g><circle class="cls-3" cx="15" cy="15" r="15"/><circle class="cls-4" cx="15" cy="11.87" r="2.25"/><path class="cls-4" d="M11.35,20.38V17.67a2,2,0,0,1,2-2h3.4a2,2,0,0,1,1.95,2v2.71"/><circle class="cls-4" cx="21.05" cy="13.43" r="1.72"/><path class="cls-4" d="M20.43,16.67h1.91a1.49,1.49,0,0,1,1.49,1.48v2.23"/><circle class="cls-4" cx="8.95" cy="13.43" r="1.72"/><path class="cls-4" d="M9.6,16.67H7.66a1.49,1.49,0,0,0-1.49,1.48v2.23"/></svg>