<svg xmlns="http://www.w3.org/2000/svg" id="b514ad08-a9f8-4086-baf7-5f90402c2142" data-name="Layer 1" viewBox="0 0 110 110"><defs><style>.b0d3dfc9-ccbd-4fd2-9b76-6edba111d4fc{fill:#fff;}.fee36b5d-01e1-477d-8fab-30a904997cd1{fill:#212121;}.bc03ca5c-d33a-4081-9574-c09b85cfdee0{fill:#2d2d2d;}</style></defs><title>Cenit_IO</title><circle class="b0d3dfc9-ccbd-4fd2-9b76-6edba111d4fc" cx="55" cy="55" r="55"></circle><path class="fee36b5d-01e1-477d-8fab-30a904997cd1" d="M70.36,60.69H39.64a9.08,9.08,0,0,1-9.07-9.57c.24-4.74,4.52-8.59,9.52-8.59a1.23,1.23,0,0,0,1.21-1,12,12,0,0,1,23.59,0,1.25,1.25,0,0,0,1.21,1h3.81c5,0,9.28,3.85,9.52,8.59a9.08,9.08,0,0,1-9.07,9.57ZM53.1,33.56a10,10,0,0,0-9.83,8.27,3.22,3.22,0,0,1-3.18,2.7,7.42,7.42,0,0,0-7.53,6.7,7.09,7.09,0,0,0,7.08,7.46H70.36a7.09,7.09,0,0,0,7.08-7.46,7.42,7.42,0,0,0-7.53-6.7H66.1a3.24,3.24,0,0,1-3.18-2.7A9.94,9.94,0,0,0,53.1,33.56Z"></path><path class="bc03ca5c-d33a-4081-9574-c09b85cfdee0" d="M75.25,73.2H59a4.25,4.25,0,0,0-3.11-3.12V64.24a1,1,0,0,0-1-1h0a1,1,0,0,0-1,1v5.84a4.26,4.26,0,0,0-3.12,3.12h-16a1,1,0,0,0,0,2h16a4.23,4.23,0,0,0,8.23,0H75.25a1,1,0,0,0,0-2ZM54.9,76.44a2.25,2.25,0,1,1,2.24-2.24A2.25,2.25,0,0,1,54.9,76.44Z"></path></svg>
