<svg xmlns="http://www.w3.org/2000/svg" id="f93fb883-6c76-49f2-b261-b73fe53904c7" data-name="Layer 1" viewBox="0 0 110 110"><defs><style>.fbe7e09a-ace6-48db-9738-d102a2f0efb8{fill:#fff;}.b41cbc7c-80e1-4259-85b1-def6643959a9{fill:none;}.fd21bfe5-7881-4139-aefb-54c6f2dd287c{fill:#212121;}.aae43aac-e8b7-402b-bf24-28d8a96d4311{fill:#2d2d2d;}</style></defs><title>Cenit_IO</title><circle class="fbe7e09a-ace6-48db-9738-d102a2f0efb8" cx="55" cy="55.06" r="55"></circle><path class="b41cbc7c-80e1-4259-85b1-def6643959a9" d="M28.73,57.88v2.85a1.82,1.82,0,0,0,1.82,1.82H44.38a1.83,1.83,0,0,0,1.83-1.82V57.88a1.83,1.83,0,0,0-1.83-1.82H30.55A1.82,1.82,0,0,0,28.73,57.88Zm3.87-.1A1.53,1.53,0,1,1,31,59.3,1.55,1.55,0,0,1,32.6,57.78Z"></path><path class="b41cbc7c-80e1-4259-85b1-def6643959a9" d="M63.79,57.88v2.85a1.83,1.83,0,0,0,1.83,1.82H79.45a1.82,1.82,0,0,0,1.82-1.82V57.88a1.82,1.82,0,0,0-1.82-1.82H65.62A1.83,1.83,0,0,0,63.79,57.88Zm3.87-.1a1.53,1.53,0,1,1-1.57,1.52A1.54,1.54,0,0,1,67.66,57.78Z"></path><path class="b41cbc7c-80e1-4259-85b1-def6643959a9" d="M81.27,52.24V49.4a1.81,1.81,0,0,0-1.82-1.82H65.62a1.82,1.82,0,0,0-1.83,1.82v2.84a1.82,1.82,0,0,0,1.83,1.82H79.45A1.81,1.81,0,0,0,81.27,52.24Zm-13.61.1a1.52,1.52,0,1,1,1.57-1.52A1.55,1.55,0,0,1,67.66,52.34Z"></path><path class="b41cbc7c-80e1-4259-85b1-def6643959a9" d="M59.32,40.9H50.68a6.32,6.32,0,0,1,1.73,4.34V64.88a6.32,6.32,0,0,1-1.73,4.34h8.64a6.32,6.32,0,0,1-1.73-4.34V45.24A6.32,6.32,0,0,1,59.32,40.9Z"></path><path class="b41cbc7c-80e1-4259-85b1-def6643959a9" d="M46.21,52.24V49.4a1.82,1.82,0,0,0-1.83-1.82H30.55a1.81,1.81,0,0,0-1.82,1.82v2.84a1.81,1.81,0,0,0,1.82,1.82H44.38A1.82,1.82,0,0,0,46.21,52.24Zm-13.61.1a1.52,1.52,0,1,1,1.57-1.52A1.54,1.54,0,0,1,32.6,52.34Z"></path><ellipse class="fd21bfe5-7881-4139-aefb-54c6f2dd287c" cx="67.66" cy="50.82" rx="1.57" ry="1.52"></ellipse><path class="fd21bfe5-7881-4139-aefb-54c6f2dd287c" d="M61.79,57.88v2.85a3.83,3.83,0,0,0,3.83,3.82H79.45a3.83,3.83,0,0,0,3.82-3.82V57.88A3.8,3.8,0,0,0,82,55.06a3.8,3.8,0,0,0,1.26-2.82V49.4a3.82,3.82,0,0,0-3.82-3.82H65.62a3.83,3.83,0,0,0-3.83,3.82v2.84a3.81,3.81,0,0,0,1.27,2.82A3.81,3.81,0,0,0,61.79,57.88Zm2-5.64V49.4a1.82,1.82,0,0,1,1.83-1.82H79.45a1.81,1.81,0,0,1,1.82,1.82v2.84a1.81,1.81,0,0,1-1.82,1.82H65.62A1.82,1.82,0,0,1,63.79,52.24Zm15.66,3.82a1.82,1.82,0,0,1,1.82,1.82v2.85a1.82,1.82,0,0,1-1.82,1.82H65.62a1.83,1.83,0,0,1-1.83-1.82V57.88a1.83,1.83,0,0,1,1.83-1.82Z"></path><ellipse class="fd21bfe5-7881-4139-aefb-54c6f2dd287c" cx="67.66" cy="59.3" rx="1.57" ry="1.52"></ellipse><ellipse class="fd21bfe5-7881-4139-aefb-54c6f2dd287c" cx="32.6" cy="59.3" rx="1.57" ry="1.52"></ellipse><path class="fd21bfe5-7881-4139-aefb-54c6f2dd287c" d="M48.21,52.24V49.4a3.83,3.83,0,0,0-3.83-3.82H30.55a3.82,3.82,0,0,0-3.82,3.82v2.84A3.8,3.8,0,0,0,28,55.06a3.8,3.8,0,0,0-1.26,2.82v2.85a3.83,3.83,0,0,0,3.82,3.82H44.38a3.83,3.83,0,0,0,3.83-3.82V57.88a3.81,3.81,0,0,0-1.27-2.82A3.81,3.81,0,0,0,48.21,52.24Zm-2,5.64v2.85a1.83,1.83,0,0,1-1.83,1.82H30.55a1.82,1.82,0,0,1-1.82-1.82V57.88a1.82,1.82,0,0,1,1.82-1.82H44.38A1.83,1.83,0,0,1,46.21,57.88ZM30.55,54.06a1.81,1.81,0,0,1-1.82-1.82V49.4a1.81,1.81,0,0,1,1.82-1.82H44.38a1.82,1.82,0,0,1,1.83,1.82v2.84a1.82,1.82,0,0,1-1.83,1.82Z"></path><ellipse class="fd21bfe5-7881-4139-aefb-54c6f2dd287c" cx="32.6" cy="50.82" rx="1.57" ry="1.52"></ellipse><path class="aae43aac-e8b7-402b-bf24-28d8a96d4311" d="M81.14,38.9H42.28a1,1,0,0,0-1,1v1.51L36.2,36.62l5.08-4.8v1.51a1,1,0,0,0,1,1H58.59a1,1,0,0,0,0-2H43.28v-1a1.78,1.78,0,0,0-3-1.29l-5.62,5.3a1.79,1.79,0,0,0,0,2.59l5.63,5.3a1.75,1.75,0,0,0,1.22.49,1.9,1.9,0,0,0,.7-.14,1.79,1.79,0,0,0,1.08-1.64v-1h2.79a4.35,4.35,0,0,1,4.34,4.34V64.88a4.35,4.35,0,0,1-4.34,4.34H28.86a4.35,4.35,0,0,1-4.34-4.34V45.24a4.35,4.35,0,0,1,4.34-4.34H32.1a1,1,0,0,0,0-2H28.86a6.35,6.35,0,0,0-6.34,6.34V64.88a6.35,6.35,0,0,0,6.34,6.34H67.72a1,1,0,0,0,1-1V68.71l5.08,4.8L68.72,78.3V76.8a1,1,0,0,0-1-1H51.41a1,1,0,1,0,0,2H66.72v1a1.79,1.79,0,0,0,1.08,1.64,1.9,1.9,0,0,0,.7.14,1.79,1.79,0,0,0,1.22-.48l5.62-5.31a1.75,1.75,0,0,0,.56-1.29,1.82,1.82,0,0,0-.55-1.3l-5.63-5.3a1.78,1.78,0,0,0-3,1.29v1H63.93a4.35,4.35,0,0,1-4.34-4.34V45.24a4.35,4.35,0,0,1,4.34-4.34H81.14a4.35,4.35,0,0,1,4.34,4.34V64.88a4.35,4.35,0,0,1-4.34,4.34h-3a1,1,0,0,0,0,2h3a6.35,6.35,0,0,0,6.34-6.34V45.24A6.35,6.35,0,0,0,81.14,38.9ZM59.32,69.22H50.68a6.32,6.32,0,0,0,1.73-4.34V45.24a6.32,6.32,0,0,0-1.73-4.34h8.64a6.32,6.32,0,0,0-1.73,4.34V64.88A6.32,6.32,0,0,0,59.32,69.22Z"></path></svg>
