<svg id="Layer_1" data-name="Layer 1" xmlns="http://www.w3.org/2000/svg" viewBox="0 0 30 30"><defs><style>.cls-1{fill:#ededed;}.cls-2{fill:none;stroke:#000;stroke-linecap:round;stroke-linejoin:round;}</style></defs><circle class="cls-1" cx="15" cy="15" r="15"/><path class="cls-2" d="M9,15h6a0,0,0,0,1,0,0v6a0,0,0,0,1,0,0H10.5A1.5,1.5,0,0,1,9,19.5V15A0,0,0,0,1,9,15Z"/><path class="cls-2" d="M15,15h5.5a.5.5,0,0,1,.5.5v4A1.5,1.5,0,0,1,19.5,21H15a0,0,0,0,1,0,0V15A0,0,0,0,1,15,15Z"/><path class="cls-2" d="M10.5,9h4a.5.5,0,0,1,.5.5V15a0,0,0,0,1,0,0H9a0,0,0,0,1,0,0V10.5A1.5,1.5,0,0,1,10.5,9Z"/><path class="cls-2" d="M17.5,7h4A1.5,1.5,0,0,1,23,8.5v4a.5.5,0,0,1-.5.5h-5a.5.5,0,0,1-.5-.5v-5A.5.5,0,0,1,17.5,7Z"/></svg>