<svg xmlns="http://www.w3.org/2000/svg" id="f31ca815-9de2-4465-8d07-eac56e09f4c8" data-name="Layer 1" viewBox="0 0 110 110"><defs><style>.af81e0eb-60a1-4ea6-927b-7490fdd91cac{fill:#f7f7f7;}.a9b8fec1-406a-4a6a-a612-654575f838a4{fill:#212121;}</style></defs><title>Cenit_IO</title><circle class="af81e0eb-60a1-4ea6-927b-7490fdd91cac" cx="55.06" cy="54.97" r="55"></circle><path class="a9b8fec1-406a-4a6a-a612-654575f838a4" d="M66.59,59.92H62V50h4.58A6.58,6.58,0,1,0,60,43.43V48h-9.9V43.43A6.58,6.58,0,1,0,43.53,50h4.58v9.91H43.53a6.58,6.58,0,1,0,6.58,6.58V61.92H60V66.5a6.58,6.58,0,1,0,6.58-6.58ZM62,43.43A4.58,4.58,0,1,1,66.59,48H62ZM48.11,66.5a4.58,4.58,0,1,1-4.58-4.58h4.58Zm0-18.49H43.53a4.58,4.58,0,1,1,4.58-4.58ZM60,59.92h-9.9V50H60Zm6.58,11.16A4.59,4.59,0,0,1,62,66.5V61.92h4.58a4.58,4.58,0,0,1,0,9.16Z"></path></svg>
