<svg xmlns="http://www.w3.org/2000/svg" id="eb242839-6d2f-4b1d-b73d-bb116ba913c3" data-name="Layer 1" viewBox="0 0 110 110"><defs><style>.bbe03d4e-54ec-45cc-bd97-30d6f839d4d4{fill:#fff;}.a881c9a1-15dc-461c-aca3-45a086f73659{fill:#212121;}.afcc54aa-3c0d-477d-8f15-edf2281cb7f1{fill:#2d2d2d;}</style></defs><title>Cenit_IO</title><circle class="bbe03d4e-54ec-45cc-bd97-30d6f839d4d4" cx="55" cy="55.06" r="55"></circle><path class="a881c9a1-15dc-461c-aca3-45a086f73659" d="M55,53.5a7.61,7.61,0,1,1,7.61-7.61A7.61,7.61,0,0,1,55,53.5Zm0-13.22a5.61,5.61,0,1,0,5.61,5.61A5.62,5.62,0,0,0,55,40.28Z"></path><path class="a881c9a1-15dc-461c-aca3-45a086f73659" d="M65.71,71.85a1,1,0,0,1-1-1v-8A4.73,4.73,0,0,0,60,58.17H50a4.73,4.73,0,0,0-4.72,4.72v8a1,1,0,0,1-2,0v-8A6.73,6.73,0,0,1,50,56.17H60a6.73,6.73,0,0,1,6.72,6.72v8A1,1,0,0,1,65.71,71.85Z"></path><path class="afcc54aa-3c0d-477d-8f15-edf2281cb7f1" d="M72.73,56.49a6,6,0,1,1,6-6A6,6,0,0,1,72.73,56.49Zm0-10.07a4,4,0,1,0,4,4A4,4,0,0,0,72.73,46.42Z"></path><path class="afcc54aa-3c0d-477d-8f15-edf2281cb7f1" d="M80.89,71.85a1,1,0,0,1-1-1V64.31A3.37,3.37,0,0,0,76.53,61H70.2a1,1,0,0,1,0-2h6.33a5.37,5.37,0,0,1,5.36,5.36v6.54A1,1,0,0,1,80.89,71.85Z"></path><path class="afcc54aa-3c0d-477d-8f15-edf2281cb7f1" d="M37.27,56.49a6,6,0,1,1,6-6A6,6,0,0,1,37.27,56.49Zm0-10.07a4,4,0,1,0,4,4A4,4,0,0,0,37.27,46.42Z"></path><path class="afcc54aa-3c0d-477d-8f15-edf2281cb7f1" d="M29.11,71.85a1,1,0,0,1-1-1V64.31A5.37,5.37,0,0,1,33.47,59H39.8a1,1,0,0,1,0,2H33.47a3.37,3.37,0,0,0-3.36,3.36v6.54A1,1,0,0,1,29.11,71.85Z"></path></svg>
