<svg xmlns="http://www.w3.org/2000/svg" id="a506260e-4abb-455f-bc25-085a50936054" data-name="Layer 1" viewBox="0 0 110 110"><defs><style>.e2a00190-2b31-4a0c-84a2-7d2fa8a8653f{fill:#fff;}.a022c85e-cc10-47ef-b580-a87bc6bce127{fill:#3a3a3a;}.e27fafb5-a849-4e5d-89df-dc22d2007b00,.e4082f73-1446-413f-b5ca-0f79c4db5a68{fill:#212121;}.e4082f73-1446-413f-b5ca-0f79c4db5a68{stroke:#212121;stroke-miterlimit:10;stroke-width:0;}</style></defs><title>Cenit_IO</title><circle class="e2a00190-2b31-4a0c-84a2-7d2fa8a8653f" cx="55" cy="55" r="55"></circle><path class="a022c85e-cc10-47ef-b580-a87bc6bce127" d="M75.25,67.8H59a4.24,4.24,0,0,0-3.11-3.11V58.85a1,1,0,0,0-1-1h0a1,1,0,0,0-1,1v5.85a4.25,4.25,0,0,0-3.12,3.11h-16a1,1,0,0,0,0,2h16a4.23,4.23,0,0,0,8.23,0H75.25a1,1,0,0,0,0-2ZM54.9,71.05a2.25,2.25,0,1,1,2.24-2.25A2.25,2.25,0,0,1,54.9,71.05Z"></path><path class="e27fafb5-a849-4e5d-89df-dc22d2007b00" d="M69.9,55.08H40.1a6.36,6.36,0,0,1-6.35-6.34V43.29A6.36,6.36,0,0,1,40.1,37H69.9a6.36,6.36,0,0,1,6.35,6.34v5.45A6.36,6.36,0,0,1,69.9,55.08ZM40.1,39a4.35,4.35,0,0,0-4.35,4.34v5.45a4.35,4.35,0,0,0,4.35,4.34H69.9a4.35,4.35,0,0,0,4.35-4.34V43.29A4.35,4.35,0,0,0,69.9,39Z"></path><path class="e27fafb5-a849-4e5d-89df-dc22d2007b00" d="M66.91,47H53.2a1,1,0,0,1,0-2H66.91a1,1,0,0,1,0,2Z"></path><circle class="e4082f73-1446-413f-b5ca-0f79c4db5a68" cx="44.36" cy="46.01" r="2.07"></circle></svg>
