<svg id="Layer_1" data-name="Layer 1" xmlns="http://www.w3.org/2000/svg" viewBox="0 0 30 30"><defs><style>.cls-1{fill:#ededed;}</style></defs><circle class="cls-1" cx="15" cy="15.02" r="15"/><circle cx="11.34" cy="10.52" r="0.71"/><circle cx="11.34" cy="15.02" r="0.71"/><circle cx="11.34" cy="19.52" r="0.71"/><path d="M22.25,11.27V9.78a2,2,0,0,0-2-2H9.76a2,2,0,0,0-2,2v1.49a2,2,0,0,0,.69,1.5,2,2,0,0,0-.69,1.5v1.5a2,2,0,0,0,.69,1.5,2,2,0,0,0-.69,1.5v1.5a2,2,0,0,0,2,2H20.25a2,2,0,0,0,2-2v-1.5a2,2,0,0,0-.7-1.5,2,2,0,0,0,.7-1.5v-1.5a2,2,0,0,0-.7-1.5A2,2,0,0,0,22.25,11.27Zm-1,7.5v1.5a1,1,0,0,1-1,1H9.76a1,1,0,0,1-1-1v-1.5a1,1,0,0,1,1-1H20.25A1,1,0,0,1,21.25,18.77Zm0-4.5v1.5a1,1,0,0,1-1,1H9.76a1,1,0,0,1-1-1v-1.5a1,1,0,0,1,1-1H20.25A1,1,0,0,1,21.25,14.27Zm-11.49-2a1,1,0,0,1-1-1V9.78a1,1,0,0,1,1-1H20.25a1,1,0,0,1,1,1v1.49a1,1,0,0,1-1,1Z"/></svg>