<svg xmlns="http://www.w3.org/2000/svg" id="ae1bdcde-1ffe-4cff-9340-ce0ae6913544" data-name="Layer 1" viewBox="0 0 110 110"><defs><style>.b145b215-415b-4d8a-b349-f65d047fcd4a{fill:#fff;}.b6e5e00e-12e4-44b7-b48f-2280f39d907b{fill:none;}.a30f810c-bc08-4233-bf28-a32a78fd47d2{fill:#2d2d2d;}.a7de93a4-c75c-4082-9180-5dedd7373826{fill:#212121;}</style></defs><title>Cenit_IO</title><circle class="b145b215-415b-4d8a-b349-f65d047fcd4a" cx="54.94" cy="55.06" r="55"></circle><circle class="b6e5e00e-12e4-44b7-b48f-2280f39d907b" cx="54.94" cy="71.51" r="2.81"></circle><path class="b6e5e00e-12e4-44b7-b48f-2280f39d907b" d="M61.93,73.23a7.15,7.15,0,0,0,0-3.44,1,1,0,0,1,.4-1.06L63.39,68l-1.13-2L61,66.5a1,1,0,0,1-1.12-.19,7.35,7.35,0,0,0-3-1.72,1,1,0,0,1-.72-.87l-.11-1.29-2.32,0-.15,1.32a1,1,0,0,1-.72.87,7.28,7.28,0,0,0-3,1.72,1,1,0,0,1-1.12.19L47.67,66l-1.19,2,1.07.79a1,1,0,0,1,.4,1.06,7.35,7.35,0,0,0-.21,1.72A7.48,7.48,0,0,0,48,73.23a1,1,0,0,1-.4,1L46.49,75l1.13,2,1.22-.53a1.06,1.06,0,0,1,.42-.09,1,1,0,0,1,.7.27,7.12,7.12,0,0,0,3,1.72,1,1,0,0,1,.72.88l.11,1.28,2.32,0,.15-1.32a1,1,0,0,1,.72-.88,7.12,7.12,0,0,0,3-1.72A1,1,0,0,1,61,76.52l1.17.55,1.19-2-1.07-.79A1,1,0,0,1,61.93,73.23Zm-7,3.09a4.81,4.81,0,1,1,4.81-4.81A4.82,4.82,0,0,1,54.94,76.32Z"></path><path class="b6e5e00e-12e4-44b7-b48f-2280f39d907b" d="M60,31v7.3a2.5,2.5,0,0,0,2.5,2.49h7Z"></path><path class="a30f810c-bc08-4233-bf28-a32a78fd47d2" d="M71.93,40.35,60.44,28.55a3.46,3.46,0,0,0-2.47-1H43.3A6.34,6.34,0,0,0,37,33.84V66.18A6.32,6.32,0,0,0,40.86,72a1.09,1.09,0,0,0,.39.08,1,1,0,0,0,.92-.62,1,1,0,0,0-.53-1.3,4.34,4.34,0,0,1-2.67-4V33.84a4.34,4.34,0,0,1,4.33-4.33H58v8.76a4.5,4.5,0,0,0,4.5,4.49h8.4V66.18a4.33,4.33,0,0,1-2.57,3.95A1,1,0,0,0,69.16,72a6.34,6.34,0,0,0,3.75-5.78V42.76A3.46,3.46,0,0,0,71.93,40.35ZM60,38.27V31l9.53,9.79h-7A2.5,2.5,0,0,1,60,38.27Z"></path><path class="a7de93a4-c75c-4082-9180-5dedd7373826" d="M54.94,66.7a4.81,4.81,0,1,0,4.81,4.81A4.82,4.82,0,0,0,54.94,66.7Zm0,7.62a2.81,2.81,0,1,1,2.81-2.81A2.81,2.81,0,0,1,54.94,74.32Z"></path><path class="a7de93a4-c75c-4082-9180-5dedd7373826" d="M65.13,66.94,64,65a2,2,0,0,0-2.63-.83l-.57.27a9.44,9.44,0,0,0-2.62-1.52l-.06-.63a2,2,0,0,0-2-1.86H53.8a2,2,0,0,0-2,1.86l-.06.63a9.44,9.44,0,0,0-2.62,1.52l-.57-.27a2,2,0,0,0-2.63.83l-1.14,2a2,2,0,0,0,.6,2.69l.52.37a8.83,8.83,0,0,0,0,3l-.52.37a2,2,0,0,0-.6,2.68l1.14,2a2,2,0,0,0,2.63.83l.57-.27a9.17,9.17,0,0,0,2.62,1.51l.06.64a2,2,0,0,0,2,1.86h2.28a2,2,0,0,0,2-1.86l.06-.63a9.44,9.44,0,0,0,2.62-1.52l.58.27A2,2,0,0,0,64,78.05l1.14-2a2,2,0,0,0-.59-2.68L64,73a8.83,8.83,0,0,0,0-3l.52-.37A2,2,0,0,0,65.13,66.94ZM62.21,77.07,61,76.52a1,1,0,0,0-1.12.18,7.12,7.12,0,0,1-3,1.72,1,1,0,0,0-.72.88l-.15,1.32-2.32,0-.11-1.28a1,1,0,0,0-.72-.88,7.12,7.12,0,0,1-3-1.72,1,1,0,0,0-.7-.27,1.06,1.06,0,0,0-.42.09l-1.22.53-1.13-2,1.06-.75a1,1,0,0,0,.4-1,7.48,7.48,0,0,1-.21-1.72A7.35,7.35,0,0,1,48,69.79a1,1,0,0,0-.4-1.06l-1.07-.79,1.19-2,1.17.55A1,1,0,0,0,50,66.31a7.28,7.28,0,0,1,3-1.72,1,1,0,0,0,.72-.87l.15-1.32,2.32,0,.11,1.29a1,1,0,0,0,.72.87,7.35,7.35,0,0,1,3,1.72A1,1,0,0,0,61,66.5L62.26,66l1.13,2-1.06.74a1,1,0,0,0-.4,1.06,7.15,7.15,0,0,1,0,3.44,1,1,0,0,0,.4,1l1.07.79Z"></path></svg>
