<svg xmlns="http://www.w3.org/2000/svg" id="a4dd6ea9-ef02-4820-ae7d-3ee246815fe9" data-name="Layer 1" viewBox="0 0 110 110"><defs><style>.beef713c-1d9a-4703-a880-6f32e0c1f4a3{fill:#f7f7f7;}.b7ce1af9-5891-4edd-8972-cca881acb42b{fill:#212121;}.b8890708-e69d-4008-bb0b-01ecbc69ce68{fill:#2d2d2d;}</style></defs><title>Cenit_IO</title><circle class="beef713c-1d9a-4703-a880-6f32e0c1f4a3" cx="55" cy="55" r="55"></circle><path class="b7ce1af9-5891-4edd-8972-cca881acb42b" d="M64.14,74.12a1,1,0,0,0-1.28.6A8.27,8.27,0,0,1,49.1,77.59c-.16-.16-.29-.33-.44-.51l.64-.3a1,1,0,0,0,0-1.79l-2.7-1.39a1,1,0,0,0-.89,0,1,1,0,0,0-.54.7l-.63,3a1,1,0,0,0,.36,1,1,1,0,0,0,.62.22,1.12,1.12,0,0,0,.43-.1l.83-.4q.39.53.84,1a10.22,10.22,0,0,0,7.2,3.17h.24a10.2,10.2,0,0,0,7.09-2.85,10,10,0,0,0,2.56-3.91A1,1,0,0,0,64.14,74.12Z"></path><path class="b7ce1af9-5891-4edd-8972-cca881acb42b" d="M65.05,65.34a1,1,0,0,0-1-.09l-.76.39a8.3,8.3,0,0,0-.72-.85,10.18,10.18,0,0,0-7.19-3.18,10.27,10.27,0,0,0-9.82,6.55,1,1,0,1,0,1.86.72,8.28,8.28,0,0,1,13.7-2.71c.12.13.23.27.34.4l-.69.35a1,1,0,0,0,0,1.79L63.48,70a.91.91,0,0,0,.43.1,1,1,0,0,0,.23-.05l.09,0h0a.38.38,0,0,0,.1,0s.07-.06.11-.09a.74.74,0,0,0,.19-.16l.07-.08a.92.92,0,0,0,.19-.55l.52-2.81A1,1,0,0,0,65.05,65.34Z"></path><path class="b8890708-e69d-4008-bb0b-01ecbc69ce68" d="M72.2,27.84H37.8a6.35,6.35,0,0,0-6.34,6.34V66.45a6.34,6.34,0,0,0,6.34,6.33h3.27a1,1,0,0,0,0-2H37.8a4.34,4.34,0,0,1-4.34-4.33V34.18a4.35,4.35,0,0,1,4.34-4.34h10V41.27a2.24,2.24,0,0,0,2.24,2.24,2.27,2.27,0,0,0,1.12-.3l3-1.72a1.68,1.68,0,0,1,1.68,0l3,1.72a2.24,2.24,0,0,0,3.36-1.94V29.84h10a4.35,4.35,0,0,1,4.34,4.34V66.45a4.34,4.34,0,0,1-4.34,4.33h-3a1,1,0,0,0,0,2h3a6.34,6.34,0,0,0,6.34-6.33V34.18A6.35,6.35,0,0,0,72.2,27.84Zm-12,13.43a.24.24,0,0,1-.12.21.25.25,0,0,1-.24,0l-3-1.72a3.67,3.67,0,0,0-3.67,0l-3,1.72a.25.25,0,0,1-.24,0,.24.24,0,0,1-.12-.21V29.84H60.17Z"></path></svg>
