<svg id="Layer_1" data-name="Layer 1" xmlns="http://www.w3.org/2000/svg" viewBox="0 0 30 30"><defs><style>.cls-1{fill:#ededed;}</style></defs><circle class="cls-1" cx="15" cy="15.03" r="15"/><path d="M15,12.63A2.4,2.4,0,1,0,17.39,15,2.4,2.4,0,0,0,15,12.63Zm0,3.79A1.4,1.4,0,1,1,16.39,15,1.39,1.39,0,0,1,15,16.42Z"/><path d="M19.73,18.53l.6-1.07a1.06,1.06,0,0,0-.3-1.39l-.3-.21a4.4,4.4,0,0,0,0-1.67L20,14a1.06,1.06,0,0,0,.3-1.39l-.6-1.06a1,1,0,0,0-1.35-.43l-.31.14a5,5,0,0,0-1.4-.82l0-.37a1,1,0,0,0-1-1H14.4a1,1,0,0,0-1,1l0,.37a5.09,5.09,0,0,0-1.4.82l-.31-.14a1,1,0,0,0-1.35.43l-.6,1.06A1.06,1.06,0,0,0,10,14l.3.21a4.78,4.78,0,0,0-.08.84,5.93,5.93,0,0,0,.07.83l-.29.21a1.06,1.06,0,0,0-.3,1.39l.6,1.07a1,1,0,0,0,1.35.43l.31-.15a4.81,4.81,0,0,0,1.4.82l0,.37a1.06,1.06,0,0,0,1,1h1.2a1,1,0,0,0,1-1l0-.36a5.08,5.08,0,0,0,1.4-.83l.31.15A1,1,0,0,0,19.73,18.53Zm-.92-.47-.59-.29-.36-.14-.25.24a3.8,3.8,0,0,1-1.51.91l-.37.13L15.6,20l-1.24,0-.11-1-.33-.1a3.73,3.73,0,0,1-1.52-.9l-.3-.26-1,.42-.59-1.15.83-.62-.08-.33a3.86,3.86,0,0,1,0-1.83l0-.37-.81-.66L11.19,12l.59.28.36.14.25-.24a3.82,3.82,0,0,1,1.54-.91l.34-.14.13-1.05,1.24.06.11,1,.33.1a3.84,3.84,0,0,1,1.52.9l.3.26,1-.41.59,1.15-.54.38-.28.25.07.32a4.11,4.11,0,0,1,.11.91,4.42,4.42,0,0,1-.11.92l-.05.36.81.66Z"/><path d="M9.64,19.72l-.93.93A1.55,1.55,0,0,0,8,20.48a1.58,1.58,0,1,0,1.58,1.58,1.48,1.48,0,0,0-.17-.7l.93-.94a.49.49,0,0,0-.7-.7ZM8,22.64a.58.58,0,0,1,0-1.16.55.55,0,0,1,.41.17h0a.59.59,0,0,1-.42,1Z"/><path d="M20,10.59a.49.49,0,0,0,.35-.15l1-1a1.56,1.56,0,1,0-.74-.68l-1,1a.48.48,0,0,0,0,.7A.47.47,0,0,0,20,10.59Zm2-3.17a.58.58,0,0,1,.58.58.6.6,0,0,1-1,.42A.56.56,0,0,1,21.42,8,.58.58,0,0,1,22,7.42Z"/><path d="M22,20.48a1.55,1.55,0,0,0-.71.17l-1-1a.49.49,0,0,0-.7.7l1,1a1.48,1.48,0,0,0-.17.7A1.58,1.58,0,1,0,22,20.48Zm0,2.16a.59.59,0,0,1-.42-1h0a.55.55,0,0,1,.41-.17.58.58,0,0,1,0,1.16Z"/><path d="M8,9.65a1.56,1.56,0,0,0,.71-.18l1,1a.49.49,0,0,0,.35.15.47.47,0,0,0,.35-.15.48.48,0,0,0,0-.7l-1-1a1.54,1.54,0,0,0,.17-.7A1.58,1.58,0,1,0,8,9.65ZM8,7.49a.57.57,0,0,1,.58.58.58.58,0,0,1-1.16,0A.57.57,0,0,1,8,7.49Z"/></svg>