<svg id="Layer_1" data-name="Layer 1" xmlns="http://www.w3.org/2000/svg" viewBox="0 0 30 30"><defs><style>.cls-1{fill:#ededed;}</style></defs><circle class="cls-1" cx="15" cy="15.03" r="15"/><path d="M12.39,13.24h-.12a4.52,4.52,0,0,0,0,9h.12a4.52,4.52,0,0,0,0-9Zm0,8h-.12a3.52,3.52,0,0,1,0-7h.12a3.52,3.52,0,0,1,0,7Z"/><path d="M13.43,8.78h3a.5.5,0,0,0,.5-.5.51.51,0,0,0-.5-.5h-3a.5.5,0,0,0-.5.5A.5.5,0,0,0,13.43,8.78Z"/><path d="M8.26,11.2a.5.5,0,0,0,.5-.5v-.65A1.26,1.26,0,0,1,10,8.78h.69a.5.5,0,0,0,.5-.5.5.5,0,0,0-.5-.5H10a2.27,2.27,0,0,0-2.26,2.27v.65A.5.5,0,0,0,8.26,11.2Z"/><path d="M21.74,13.05a.51.51,0,0,0-.5.5v2.93a.51.51,0,0,0,.5.5.5.5,0,0,0,.5-.5V13.55A.5.5,0,0,0,21.74,13.05Z"/><path d="M20,7.78h-.69a.5.5,0,0,0-.5.5.5.5,0,0,0,.5.5H20a1.26,1.26,0,0,1,1.26,1.27v.66a.51.51,0,0,0,.5.5.5.5,0,0,0,.5-.5v-.66A2.27,2.27,0,0,0,20,7.78Z"/><path d="M21.74,18.82a.51.51,0,0,0-.5.5V20A1.25,1.25,0,0,1,20,21.24h-.69a.5.5,0,0,0-.5.5.5.5,0,0,0,.5.5H20A2.26,2.26,0,0,0,22.24,20v-.66A.5.5,0,0,0,21.74,18.82Z"/></svg>