<svg xmlns="http://www.w3.org/2000/svg" id="f93e8ed2-175b-4627-acaf-2462529a9ac4" data-name="Layer 1" viewBox="0 0 110 110"><defs><style>.b10bf64d-0d5c-4e00-8ad8-6f776ea5c720{fill:#f7f7f7;}.a7faa7d0-18f3-4b43-961c-c9a22f573eb1{fill:#2d2d2d;}.a724af55-4610-4746-bf0b-33e085443d4a{fill:#212121;}</style></defs><title>Cenit_IO</title><circle class="b10bf64d-0d5c-4e00-8ad8-6f776ea5c720" cx="55" cy="55" r="55"></circle><path class="a7faa7d0-18f3-4b43-961c-c9a22f573eb1" d="M29.34,51.32a.55.55,0,0,1-.18,0,1,1,0,0,1-.81-1.16A27.17,27.17,0,0,1,50.06,28.37a1,1,0,1,1,.36,2A25.16,25.16,0,0,0,30.32,50.5,1,1,0,0,1,29.34,51.32Z"></path><path class="a7faa7d0-18f3-4b43-961c-c9a22f573eb1" d="M50.24,81.65a.55.55,0,0,1-.18,0,27.18,27.18,0,0,1-21.7-21.69,1,1,0,1,1,2-.36A25.2,25.2,0,0,0,50.42,79.67a1,1,0,0,1-.18,2Z"></path><path class="a7faa7d0-18f3-4b43-961c-c9a22f573eb1" d="M59.76,81.65a1,1,0,0,1-.18-2A25.16,25.16,0,0,0,79.68,59.5a1,1,0,0,1,2,.36A27.17,27.17,0,0,1,59.94,81.63.55.55,0,0,1,59.76,81.65Z"></path><path class="a7faa7d0-18f3-4b43-961c-c9a22f573eb1" d="M80.65,51.24a1,1,0,0,1-1-.82A25.2,25.2,0,0,0,59.58,30.33a1,1,0,1,1,.36-2A27.15,27.15,0,0,1,81.63,50.06a1,1,0,0,1-.8,1.17Z"></path><path class="a724af55-4610-4746-bf0b-33e085443d4a" d="M55,68.57A13.57,13.57,0,1,1,68.57,55,13.59,13.59,0,0,1,55,68.57Zm0-25.14A11.57,11.57,0,1,0,66.57,55,11.58,11.58,0,0,0,55,43.43Z"></path></svg>
