<svg xmlns="http://www.w3.org/2000/svg" id="a6293732-e32c-471a-91c9-a61a5c784e27" data-name="Layer 1" viewBox="0 0 110 110"><defs><style>.bfaf5eac-49d6-438a-af30-52946f87011a{fill:#f7f7f7;}.fed338ca-5cd0-4c78-9b4f-5e9782b852c6{fill:#2d2d2d;}.b89319ee-109d-4dc6-b879-b11f584d524b{fill:#212121;}</style></defs><title>Cenit_IO</title><circle class="bfaf5eac-49d6-438a-af30-52946f87011a" cx="55" cy="55" r="55"></circle><path class="fed338ca-5cd0-4c78-9b4f-5e9782b852c6" d="M41.31,72.36a.91.91,0,0,1-.39-.08,6.34,6.34,0,0,1-3.87-5.83V34.18a6.35,6.35,0,0,1,6.33-6.34H66.62A6.35,6.35,0,0,1,73,34.18V66.45a6.4,6.4,0,0,1-3.55,5.69,1,1,0,0,1-1.34-.46,1,1,0,0,1,.45-1.34A4.38,4.38,0,0,0,71,66.45V34.18a4.34,4.34,0,0,0-4.33-4.34H43.38a4.34,4.34,0,0,0-4.33,4.34V66.45a4.33,4.33,0,0,0,2.65,4,1,1,0,0,1-.39,1.92Z"></path><path class="fed338ca-5cd0-4c78-9b4f-5e9782b852c6" d="M62.84,41.56H47.16a1,1,0,0,1,0-2H62.84a1,1,0,0,1,0,2Z"></path><path class="fed338ca-5cd0-4c78-9b4f-5e9782b852c6" d="M62.84,48.17H47.16a1,1,0,0,1,0-2H62.84a1,1,0,0,1,0,2Z"></path><path class="fed338ca-5cd0-4c78-9b4f-5e9782b852c6" d="M62.84,54.77H47.16a1,1,0,0,1,0-2H62.84a1,1,0,0,1,0,2Z"></path><path class="b89319ee-109d-4dc6-b879-b11f584d524b" d="M64.06,74.12a1,1,0,0,0-1.28.6A8.27,8.27,0,0,1,49,77.59c-.15-.16-.29-.33-.43-.51l.63-.3a1,1,0,0,0,0-1.79l-2.7-1.39a1,1,0,0,0-.88,0,1,1,0,0,0-.55.7l-.63,3a1,1,0,0,0,.36,1,1,1,0,0,0,.62.22,1.08,1.08,0,0,0,.43-.1l.83-.4a11.48,11.48,0,0,0,.85,1,10.18,10.18,0,0,0,7.19,3.17H55a10.22,10.22,0,0,0,7.09-2.84,10.11,10.11,0,0,0,2.56-3.92A1,1,0,0,0,64.06,74.12Z"></path><path class="b89319ee-109d-4dc6-b879-b11f584d524b" d="M65,65.34a1,1,0,0,0-1-.09l-.76.39a8.3,8.3,0,0,0-.72-.85,10.21,10.21,0,0,0-7.19-3.18,10.33,10.33,0,0,0-7.34,2.84,10.22,10.22,0,0,0-2.48,3.71,1,1,0,1,0,1.86.72A8.28,8.28,0,0,1,61,66.17c.13.13.23.27.34.4l-.69.35a1,1,0,0,0-.54.91,1,1,0,0,0,.57.88L63.4,70a1,1,0,0,0,.43.09.82.82,0,0,0,.25-.06h.1a.38.38,0,0,0,.1,0,.54.54,0,0,0,.12-.09l.18-.15a.36.36,0,0,0,.07-.1,1,1,0,0,0,.2-.54l.51-2.81A1,1,0,0,0,65,65.34Z"></path></svg>
