<svg xmlns="http://www.w3.org/2000/svg" id="e4544158-ee82-4b15-a6e5-0d81f5722619" data-name="Layer 1" viewBox="0 0 110 110"><defs><style>.b2867af5-8381-422f-a321-b01ba52f9e5f{fill:#f7f7f7;}.bf51a196-03ff-4e5b-a9d4-9a95c865a0e5{fill:#212121;}</style></defs><title>Cenit_IO</title><circle class="b2867af5-8381-422f-a321-b01ba52f9e5f" cx="55" cy="55" r="55"></circle><path class="bf51a196-03ff-4e5b-a9d4-9a95c865a0e5" d="M55,43.66a6.82,6.82,0,1,0,6.81,6.81A6.82,6.82,0,0,0,55,43.66Zm0,11.63a4.82,4.82,0,1,1,4.81-4.82A4.82,4.82,0,0,1,55,55.29Z"></path><path class="bf51a196-03ff-4e5b-a9d4-9a95c865a0e5" d="M67,53.17l-.82-.58a11.09,11.09,0,0,0,.2-2.12,10.92,10.92,0,0,0-.2-2.11l.82-.59a2.36,2.36,0,0,0,.68-3.08l-1.46-2.58a2.31,2.31,0,0,0-3-1l-.87.42a11.61,11.61,0,0,0-3.55-2.1l-.08-1a2.32,2.32,0,0,0-2.31-2.15h-2.9a2.32,2.32,0,0,0-2.31,2.15l-.08,1a11.61,11.61,0,0,0-3.55,2.1l-.88-.42a2.3,2.3,0,0,0-3,1l-1.46,2.58A2.36,2.36,0,0,0,43,47.77l.82.59a10.92,10.92,0,0,0-.2,2.11,11.09,11.09,0,0,0,.2,2.12l-.82.58a2.38,2.38,0,0,0-.68,3.09l1.46,2.58a2.31,2.31,0,0,0,3,1l.88-.42a11.47,11.47,0,0,0,3.55,2.09l.08,1a2.32,2.32,0,0,0,2.31,2.15h2.9a2.32,2.32,0,0,0,2.31-2.15l.08-1a11.58,11.58,0,0,0,3.55-2.09l.87.41a2.3,2.3,0,0,0,3-.95l1.46-2.58A2.38,2.38,0,0,0,67,53.17Zm-2.45-6.1a1.09,1.09,0,0,0-.43,1.16,9.78,9.78,0,0,1,0,4.48,1.11,1.11,0,0,0,.43,1.17l1.29.92a.38.38,0,0,1,.09.48l-1.45,2.57a.29.29,0,0,1-.39.14l-1.42-.68a1.11,1.11,0,0,0-1.25.2,9.33,9.33,0,0,1-3.77,2.24,1.1,1.1,0,0,0-.79,1l-.13,1.6a.34.34,0,0,1-.32.32h-2.9a.34.34,0,0,1-.32-.32l-.13-1.6a1.11,1.11,0,0,0-.78-1,9.3,9.3,0,0,1-3.78-2.24,1.12,1.12,0,0,0-.77-.31,1.16,1.16,0,0,0-.48.11L45.87,58a.29.29,0,0,1-.39-.14L44,55.28a.38.38,0,0,1,.09-.48l1.29-.92a1.13,1.13,0,0,0,.44-1.16,9.8,9.8,0,0,1-.27-2.25,10.28,10.28,0,0,1,.26-2.24,1.09,1.09,0,0,0-.43-1.16l-1.29-.92a.38.38,0,0,1-.09-.48l1.45-2.58a.31.31,0,0,1,.39-.14l1.42.69a1.13,1.13,0,0,0,1.25-.21,9.31,9.31,0,0,1,3.77-2.23,1.13,1.13,0,0,0,.79-1l.13-1.59a.34.34,0,0,1,.32-.32h2.9a.33.33,0,0,1,.32.31l.13,1.6a1.11,1.11,0,0,0,.78,1,9.42,9.42,0,0,1,3.78,2.24,1.13,1.13,0,0,0,1.25.21L64.13,43a.29.29,0,0,1,.39.13L66,45.67a.38.38,0,0,1-.09.48Z"></path><path class="bf51a196-03ff-4e5b-a9d4-9a95c865a0e5" d="M75.28,31.72H34.72a3,3,0,0,0-3,3v31.5a3,3,0,0,0,3,3H54v7.06H43.59a1,1,0,0,0,0,2H66.41a1,1,0,0,0,0-2H56V69.22H75.28a3,3,0,0,0,3-3V34.72A3,3,0,0,0,75.28,31.72Zm1,34.5a1,1,0,0,1-1,1H34.72a1,1,0,0,1-1-1V34.72a1,1,0,0,1,1-1H75.28a1,1,0,0,1,1,1Z"></path></svg>
