<svg xmlns="http://www.w3.org/2000/svg" id="a33d2ee3-16eb-43f2-8b9b-4fe8c83ca632" data-name="Layer 1" viewBox="0 0 110 110"><defs><style>.bf105db2-8a27-4d78-96d6-3b0e0521703c{fill:#fff;}.b913befa-9e13-4d86-9b63-e8ea10023fbe{fill:none;}.abc4fb02-2396-45b7-a6dc-cd3a5a730e17{fill:#2d2d2d;}.e0d56633-bb82-4f66-92b1-afce27152660{fill:#212121;}</style></defs><title>Cenit_IO</title><circle class="bf105db2-8a27-4d78-96d6-3b0e0521703c" cx="55" cy="55.06" r="55"></circle><circle class="b913befa-9e13-4d86-9b63-e8ea10023fbe" cx="68.67" cy="37.92" r="2.33"></circle><path class="b913befa-9e13-4d86-9b63-e8ea10023fbe" d="M37.81,49.85a4.41,4.41,0,1,0,4.41,4.41A4.42,4.42,0,0,0,37.81,49.85Z"></path><path class="b913befa-9e13-4d86-9b63-e8ea10023fbe" d="M68.67,66.66A3.94,3.94,0,1,0,72.6,70.6,3.95,3.95,0,0,0,68.67,66.66Z"></path><path class="abc4fb02-2396-45b7-a6dc-cd3a5a730e17" d="M46.67,49.85a1.07,1.07,0,0,0,.42-.1L65.6,41a4.19,4.19,0,0,1-1-1.72L46.24,47.94a1,1,0,0,0,.43,1.91Z"></path><path class="e0d56633-bb82-4f66-92b1-afce27152660" d="M68.67,42.25a4.33,4.33,0,1,0-4.33-4.33,4.58,4.58,0,0,0,1.26,3A4.31,4.31,0,0,0,68.67,42.25Zm0-6.66a2.33,2.33,0,1,1-2.33,2.33A2.34,2.34,0,0,1,68.67,35.59Z"></path><path class="abc4fb02-2396-45b7-a6dc-cd3a5a730e17" d="M43.56,57.09a6.68,6.68,0,0,1-1.18,1.66l20.71,9.82a6.09,6.09,0,0,1,1-1.74Z"></path><path class="e0d56633-bb82-4f66-92b1-afce27152660" d="M68.67,64.66a5.91,5.91,0,0,0-4.59,2.17,6.09,6.09,0,0,0-1,1.74,5.93,5.93,0,1,0,5.58-3.91Zm0,9.87A3.94,3.94,0,1,1,72.6,70.6,3.94,3.94,0,0,1,68.67,74.53Z"></path><path class="e0d56633-bb82-4f66-92b1-afce27152660" d="M44.22,54.26a6.42,6.42,0,1,0-1.84,4.49,6.68,6.68,0,0,0,1.18-1.66A6.37,6.37,0,0,0,44.22,54.26Zm-6.41,4.41a4.41,4.41,0,1,1,4.41-4.41A4.42,4.42,0,0,1,37.81,58.67Z"></path></svg>
