<svg id="Layer_1" data-name="Layer 1" xmlns="http://www.w3.org/2000/svg" xmlns:xlink="http://www.w3.org/1999/xlink" viewBox="0 0 30 30"><defs><style>.cls-1,.cls-4,.cls-5{fill:none;}.cls-2{clip-path:url(#clip-path);}.cls-3{fill:#ededed;}.cls-4,.cls-5{stroke:#050505;}.cls-4{stroke-linecap:round;stroke-linejoin:round;}.cls-5{stroke-miterlimit:10;}</style><clipPath id="clip-path"><rect class="cls-1" x="110.06" y="-262.79" width="459.72" height="331.91"/></clipPath></defs><g class="cls-2"><image width="1920" height="1030" transform="translate(-104.7 -378.31) scale(0.48)" xlink:href="../../Cenit%20IO%20_%20integration%20Platform%20-%20Google%20Chrome%203_2_2022%2011_36_55.png"/></g><circle class="cls-3" cx="15" cy="14.97" r="15"/><circle class="cls-4" cx="15" cy="13.62" r="1.43"/><path class="cls-4" d="M12.68,17.61a1.23,1.23,0,0,1,1.24-1.24h2.16a1.23,1.23,0,0,1,1.24,1.24"/><circle class="cls-5" cx="15" cy="15.03" r="4.99"/><line class="cls-4" x1="19.97" y1="19.98" x2="21.23" y2="21.24"/><line class="cls-4" x1="8.77" y1="8.77" x2="10.03" y2="10.04"/><line class="cls-4" x1="9.99" y1="20.02" x2="8.77" y2="21.24"/><line class="cls-4" x1="21.27" y1="8.74" x2="19.97" y2="10.04"/><path class="cls-5" d="M21.27,8.74a1.06,1.06,0,0,1-.35-.8A1.08,1.08,0,1,1,22,9a1,1,0,0,1-.73-.28"/><circle class="cls-5" cx="22" cy="22" r="1.08"/><circle class="cls-5" cx="8" cy="22" r="1.08"/><circle class="cls-5" cx="8" cy="8.01" r="1.08"/></svg>