<svg id="Layer_1" data-name="Layer 1" xmlns="http://www.w3.org/2000/svg" xmlns:xlink="http://www.w3.org/1999/xlink" viewBox="0 0 30 30"><defs><style>.cls-1,.cls-4,.cls-5{fill:none;}.cls-2{clip-path:url(#clip-path);}.cls-3{fill:#ededed;}.cls-4{stroke:#050505;}.cls-4,.cls-5{stroke-linecap:round;stroke-linejoin:round;}.cls-5{stroke:#000;}</style><clipPath id="clip-path"><rect class="cls-1" x="149.89" y="-262.79" width="459.72" height="331.91"/></clipPath></defs><g class="cls-2"><image width="1920" height="1030" transform="translate(-64.87 -378.31) scale(0.48)" xlink:href="../../Cenit%20IO%20_%20integration%20Platform%20-%20Google%20Chrome%203_2_2022%2011_36_55.png"/></g><circle class="cls-3" cx="15" cy="15" r="15"/><path class="cls-4" d="M12.05,13.06a4.19,4.19,0,0,1-.45-1.87"/><path class="cls-4" d="M19.33,16.94H10.67a2.88,2.88,0,1,1,0-5.76h.93v-.06a4.07,4.07,0,1,1,8.14,0v.09h0a2.88,2.88,0,0,1-.41,5.73"/><rect class="cls-5" x="14.07" y="21.08" width="1.87" height="1.87" rx="0.93"/><line class="cls-5" x1="15" y1="19.15" x2="15" y2="21.08"/><line class="cls-5" x1="15.93" y1="22.01" x2="20.86" y2="22.01"/><line class="cls-5" x1="9.2" y1="22.01" x2="14.07" y2="22.01"/></svg>