<svg id="Layer_1" data-name="Layer 1" xmlns="http://www.w3.org/2000/svg" viewBox="0 0 30 30"><defs><style>.cls-1{fill:#ededed;}.cls-2{fill:#050505;}</style></defs><circle class="cls-1" cx="15" cy="15" r="15"/><path class="cls-2" d="M15,13.16a2.39,2.39,0,1,0,2.39,2.39A2.39,2.39,0,0,0,15,13.16Zm0,3.78a1.39,1.39,0,1,1,1.39-1.39A1.39,1.39,0,0,1,15,16.94Z"/><path class="cls-2" d="M20.33,13.12l-.6-1.07a1,1,0,0,0-1.35-.43l-.31.15a4.76,4.76,0,0,0-1.4-.83l0-.36a1,1,0,0,0-1-1H14.4a1,1,0,0,0-1,1l0,.36a5.08,5.08,0,0,0-1.4.83l-.31-.15a1,1,0,0,0-1.35.43l-.6,1.07a1.06,1.06,0,0,0,.3,1.39l.3.21a4.76,4.76,0,0,0-.08.83,5,5,0,0,0,.08.84l-.3.21A1.06,1.06,0,0,0,9.67,18l.6,1.06a1,1,0,0,0,1.35.43l.31-.15a4.85,4.85,0,0,0,1.4.83l0,.37a1,1,0,0,0,1,1h1.2a1,1,0,0,0,1-1l0-.37a4.63,4.63,0,0,0,1.4-.83l.31.15a1,1,0,0,0,1.35-.43l.6-1.07A1,1,0,0,0,20,16.6l-.3-.21a4.87,4.87,0,0,0,.08-.84,4.76,4.76,0,0,0-.08-.83l.3-.21A1.06,1.06,0,0,0,20.33,13.12Zm-1.52,5.46-.94-.43-.26.25a3.78,3.78,0,0,1-1.51.9l-.37.13-.13,1.06-1.24,0-.06-.67-.07-.37-.31-.1a3.73,3.73,0,0,1-1.54-.91l-.3-.24-.94.41-.59-1.15.54-.38.28-.25-.07-.32a4.11,4.11,0,0,1-.11-.91,3.87,3.87,0,0,1,.11-.89l.07-.39-.83-.66.65-1.09.59.28.36.14.25-.24a3.82,3.82,0,0,1,1.54-.91l.34-.14.13-1,1.24.05.06.67.07.37.31.1a3.73,3.73,0,0,1,1.54.91l.3.24.94-.41.59,1.15-.55.39-.27.24.07.32a4.18,4.18,0,0,1,.11.91,4,4,0,0,1-.11.9l-.07.38.83.66Z"/><path class="cls-2" d="M24.1,19A9.71,9.71,0,0,0,18.72,6.63a.5.5,0,1,0-.38.92,8.69,8.69,0,0,1,5.38,8.06,8.82,8.82,0,0,1-.54,3H23a1.72,1.72,0,1,0,1.1.4Zm-1.1,2a.72.72,0,1,1,.72-.72A.72.72,0,0,1,23,21.06Z"/><path class="cls-2" d="M5.87,17.44h.07a.5.5,0,0,0,.43-.57,8.9,8.9,0,0,1-.09-1.26A8.78,8.78,0,0,1,13.41,7,1.72,1.72,0,1,0,15,4.66,1.74,1.74,0,0,0,13.31,6a9.78,9.78,0,0,0-8,9.57,9.32,9.32,0,0,0,.1,1.4A.5.5,0,0,0,5.87,17.44ZM15,5.66a.73.73,0,0,1,.72.73.72.72,0,1,1-1.44,0A.73.73,0,0,1,15,5.66Z"/><path class="cls-2" d="M20.31,22.54a8.71,8.71,0,0,1-11.9-1.22,1.68,1.68,0,0,0,.31-1A1.72,1.72,0,1,0,7,22.06a1.59,1.59,0,0,0,.62-.12,9.72,9.72,0,0,0,13.3,1.39.51.51,0,0,0,.09-.7A.5.5,0,0,0,20.31,22.54Zm-14-2.2a.72.72,0,1,1,.72.72A.72.72,0,0,1,6.28,20.34Z"/></svg>