<svg id="Layer_1" data-name="Layer 1" xmlns="http://www.w3.org/2000/svg" viewBox="0 0 30 30"><defs><style>.cls-1{fill:#ededed;}</style></defs><circle class="cls-1" cx="15" cy="15" r="15"/><circle cx="12.54" cy="11.98" r="0.48"/><circle cx="12.54" cy="15" r="0.48"/><path d="M12.54,17.54a.49.49,0,0,0-.48.48.48.48,0,0,0,1,0A.49.49,0,0,0,12.54,17.54Z"/><path d="M20,11.47a1.5,1.5,0,0,0-1.5-1.5H11.47a1.5,1.5,0,0,0-1.5,1.5v1a1.49,1.49,0,0,0,.39,1,1.49,1.49,0,0,0-.39,1v1a1.49,1.49,0,0,0,.39,1,1.49,1.49,0,0,0-.39,1v1a1.5,1.5,0,0,0,1.5,1.5h7.06a1.5,1.5,0,0,0,1.5-1.5v-1a1.49,1.49,0,0,0-.39-1,1.49,1.49,0,0,0,.39-1v-1a1.49,1.49,0,0,0-.39-1,1.49,1.49,0,0,0,.39-1Zm-9.06,0a.5.5,0,0,1,.5-.5h7.06a.5.5,0,0,1,.5.5v1a.5.5,0,0,1-.5.5H11.47a.5.5,0,0,1-.5-.5Zm8.06,3v1a.5.5,0,0,1-.5.5H11.47a.5.5,0,0,1-.5-.5v-1a.5.5,0,0,1,.5-.5h7.06A.5.5,0,0,1,19,14.49Zm0,4a.5.5,0,0,1-.5.5H11.47a.5.5,0,0,1-.5-.5v-1a.5.5,0,0,1,.5-.5h7.06a.5.5,0,0,1,.5.5Z"/><path d="M12.33,23.36a8.72,8.72,0,0,1,1.58-17L12.75,7.87a.49.49,0,0,0,.08.7.45.45,0,0,0,.31.11.49.49,0,0,0,.39-.19l1.86-2.35s0,0,0-.06A.41.41,0,0,0,15.47,6s0-.06,0-.1,0,0,0-.06a0,0,0,0,0,0,0s0,0,0,0l0-.07a.16.16,0,0,0,0-.09.43.43,0,0,0,0-.07l-.07-.08,0,0L13,3.57a.5.5,0,0,0-.7.09.49.49,0,0,0,.08.7l1.35,1.07A9.72,9.72,0,0,0,12,24.31a.47.47,0,0,0,.16,0,.5.5,0,0,0,.15-1Z"/><path d="M24.72,15.05a9.78,9.78,0,0,0-6.95-9.32.5.5,0,0,0-.62.33.51.51,0,0,0,.33.63,8.72,8.72,0,0,1-1.45,17l1.13-1.57a.49.49,0,0,0-.11-.7.51.51,0,0,0-.7.11L14.59,24s0,0,0,.05l0,.09a.44.44,0,0,0,0,.1s0,0,0,.06v0a.3.3,0,0,0,0,.1l0,.09a.35.35,0,0,0,0,.08.46.46,0,0,0,.07.07l0,0,2.43,1.76a.52.52,0,0,0,.7-.11.5.5,0,0,0-.12-.7l-1.33-1A9.72,9.72,0,0,0,24.72,15.05Z"/></svg>