<svg id="Layer_1" data-name="Layer 1" xmlns="http://www.w3.org/2000/svg" viewBox="0 0 30 30"><defs><style>.cls-1{fill:#ededed;}</style></defs><circle class="cls-1" cx="15" cy="15" r="15"/><path d="M18.3,13.57V10.51a3.3,3.3,0,1,0-6.6,0v3.06a2,2,0,0,0-1.69,2v3a5,5,0,0,0,10,0v-3A2,2,0,0,0,18.3,13.57ZM15,8.21a2.3,2.3,0,0,1,2.3,2.3v3H12.7v-3A2.3,2.3,0,0,1,15,8.21Zm4,10.32a4,4,0,0,1-8,0v-3a1,1,0,0,1,1-1h6a1,1,0,0,1,1,1Z"/><path d="M15,16.47a1.58,1.58,0,1,0,1.58,1.58A1.58,1.58,0,0,0,15,16.47Zm0,2.16a.58.58,0,1,1,.58-.58A.58.58,0,0,1,15,18.63Z"/></svg>