<?xml version="1.0" encoding="UTF-8"?>
<svg xmlns="http://www.w3.org/2000/svg" xmlns:xlink="http://www.w3.org/1999/xlink" width="32px" height="16px" viewBox="0 0 31 16" version="1.1">
<g id="surface1">
<path style=" stroke:none;fill-rule:nonzero;fill:rgb(0%,0%,0%);fill-opacity:1;" d="M 15.058594 0.078125 C 14.378906 0.214844 13.832031 0.753906 13.730469 1.390625 C 13.660156 1.832031 13.832031 2.34375 14.171875 2.679688 C 14.34375 2.855469 14.703125 3.074219 14.90625 3.125 L 14.972656 3.144531 L 14.972656 7.421875 C 14.972656 11.625 14.972656 11.699219 14.914062 11.699219 C 14.859375 11.699219 14.523438 11.816406 14.273438 11.921875 C 14.15625 11.96875 14.539062 12.292969 11.289062 9.398438 C 9.558594 7.851562 8.898438 7.246094 8.910156 7.210938 C 8.917969 7.183594 8.960938 7.0625 9.003906 6.941406 C 9.246094 6.253906 8.898438 5.460938 8.203125 5.117188 C 7.164062 4.601562 5.914062 5.046875 5.578125 6.054688 C 5.519531 6.226562 5.515625 6.304688 5.523438 6.5625 C 5.539062 6.84375 5.550781 6.886719 5.667969 7.125 C 5.894531 7.589844 6.34375 7.921875 6.882812 8.039062 C 7.207031 8.105469 7.636719 8.085938 7.925781 7.980469 L 8.148438 7.898438 L 8.71875 8.40625 C 12.367188 11.652344 13.40625 12.585938 13.417969 12.625 C 13.421875 12.648438 13.394531 12.710938 13.359375 12.765625 C 13.320312 12.816406 13.253906 12.960938 13.203125 13.085938 L 13.117188 13.308594 L 8.332031 13.3125 L 3.550781 13.324219 L 3.441406 13.113281 C 3.101562 12.457031 2.25 12.085938 1.425781 12.242188 C 0.53125 12.410156 -0.0664062 13.179688 0.0546875 14 C 0.148438 14.59375 0.5625 15.058594 1.199219 15.277344 C 1.40625 15.351562 1.496094 15.363281 1.796875 15.363281 C 2.199219 15.367188 2.46875 15.300781 2.800781 15.125 C 3.015625 15.007812 3.328125 14.683594 3.457031 14.4375 L 3.550781 14.257812 L 13.128906 14.257812 L 13.1875 14.421875 C 13.386719 15 13.871094 15.5 14.472656 15.734375 C 14.980469 15.929688 15.484375 15.988281 15.964844 15.894531 C 16.632812 15.769531 17.175781 15.449219 17.5 14.996094 C 17.636719 14.800781 17.855469 14.375 17.855469 14.300781 C 17.855469 14.265625 18.78125 14.257812 22.65625 14.257812 C 27.351562 14.257812 27.464844 14.257812 27.480469 14.316406 C 27.515625 14.433594 27.734375 14.742188 27.882812 14.890625 C 28.0625 15.0625 28.296875 15.195312 28.613281 15.292969 C 28.945312 15.398438 29.460938 15.394531 29.789062 15.289062 C 30.226562 15.148438 30.636719 14.800781 30.8125 14.433594 C 31.253906 13.5 30.660156 12.449219 29.574219 12.242188 C 28.75 12.085938 27.894531 12.457031 27.554688 13.117188 L 27.449219 13.324219 L 22.667969 13.3125 L 17.882812 13.308594 L 17.796875 13.085938 C 17.746094 12.960938 17.679688 12.816406 17.640625 12.765625 C 17.605469 12.710938 17.578125 12.648438 17.582031 12.625 C 17.59375 12.585938 18.625 11.65625 22.289062 8.398438 C 22.6875 8.042969 22.875 7.898438 22.910156 7.914062 C 23.300781 8.085938 23.796875 8.132812 24.1875 8.023438 C 24.734375 7.871094 25.105469 7.585938 25.332031 7.140625 C 25.4375 6.933594 25.480469 6.734375 25.480469 6.457031 C 25.480469 5.605469 24.675781 4.898438 23.699219 4.898438 C 22.464844 4.898438 21.613281 5.992188 22.027344 7.035156 L 22.109375 7.246094 L 22.007812 7.347656 C 21.921875 7.429688 17.964844 10.957031 17.039062 11.773438 C 16.828125 11.960938 16.828125 11.960938 16.730469 11.921875 C 16.476562 11.816406 16.140625 11.699219 16.085938 11.699219 C 16.027344 11.699219 16.027344 11.625 16.027344 7.421875 L 16.027344 3.144531 L 16.09375 3.125 C 16.136719 3.117188 16.273438 3.054688 16.410156 2.984375 C 16.867188 2.753906 17.152344 2.378906 17.253906 1.859375 C 17.355469 1.382812 17.207031 0.9375 16.832031 0.558594 C 16.398438 0.121094 15.734375 -0.0546875 15.058594 0.078125 Z M 15.058594 0.078125 "/>
</g>
</svg>
