<?xml version="1.0" encoding="UTF-8"?>
<svg xmlns="http://www.w3.org/2000/svg" xmlns:xlink="http://www.w3.org/1999/xlink" width="120px" height="62px" viewBox="0 0 120 62" version="1.1">
<g id="surface1">
<path style=" stroke:none;fill-rule:nonzero;fill:rgb(0%,0%,0%);fill-opacity:1;" d="M 58.285156 0.300781 C 55.65625 0.835938 53.542969 2.925781 53.148438 5.390625 C 52.871094 7.097656 53.542969 9.078125 54.851562 10.386719 C 55.523438 11.0625 56.914062 11.910156 57.695312 12.113281 L 57.960938 12.1875 L 57.960938 28.761719 C 57.960938 45.050781 57.960938 45.339844 57.730469 45.339844 C 57.515625 45.339844 56.21875 45.785156 55.246094 46.199219 C 54.792969 46.378906 56.28125 47.636719 43.703125 36.417969 C 36.996094 30.433594 34.441406 28.074219 34.488281 27.941406 C 34.523438 27.832031 34.691406 27.359375 34.847656 26.902344 C 35.796875 24.242188 34.453125 21.160156 31.753906 19.828125 C 27.730469 17.832031 22.894531 19.5625 21.601562 23.457031 C 21.371094 24.121094 21.347656 24.433594 21.382812 25.425781 C 21.445312 26.515625 21.480469 26.683594 21.9375 27.613281 C 22.8125 29.402344 24.550781 30.699219 26.640625 31.144531 C 27.898438 31.410156 29.554688 31.328125 30.683594 30.925781 L 31.546875 30.613281 L 33.742188 32.570312 C 47.878906 45.15625 51.898438 48.773438 51.9375 48.917969 C 51.960938 49.015625 51.851562 49.257812 51.707031 49.460938 C 51.5625 49.667969 51.300781 50.222656 51.109375 50.707031 L 50.773438 51.566406 L 32.257812 51.589844 L 13.738281 51.625 L 13.320312 50.816406 C 12.011719 48.265625 8.710938 46.839844 5.519531 47.441406 C 2.050781 48.097656 -0.265625 51.070312 0.214844 54.25 C 0.574219 56.546875 2.171875 58.347656 4.644531 59.207031 C 5.449219 59.484375 5.785156 59.535156 6.960938 59.535156 C 8.507812 59.546875 9.550781 59.292969 10.835938 58.613281 C 11.675781 58.15625 12.886719 56.898438 13.378906 55.941406 L 13.738281 55.253906 L 50.820312 55.253906 L 51.046875 55.882812 C 51.816406 58.132812 53.699219 60.066406 56.027344 60.972656 C 57.984375 61.734375 59.941406 61.953125 61.800781 61.589844 C 64.378906 61.105469 66.492188 59.859375 67.738281 58.105469 C 68.269531 57.355469 69.121094 55.699219 69.121094 55.410156 C 69.121094 55.277344 72.695312 55.253906 87.707031 55.253906 C 105.875 55.253906 106.308594 55.253906 106.378906 55.484375 C 106.511719 55.929688 107.363281 57.128906 107.941406 57.695312 C 108.636719 58.371094 109.535156 58.878906 110.761719 59.265625 C 112.042969 59.667969 114.046875 59.65625 115.308594 59.242188 C 117 58.699219 118.597656 57.355469 119.269531 55.929688 C 120.984375 52.316406 118.679688 48.242188 114.480469 47.441406 C 111.289062 46.839844 107.976562 48.277344 106.667969 50.828125 L 106.261719 51.625 L 87.742188 51.589844 L 69.226562 51.566406 L 68.890625 50.707031 C 68.699219 50.222656 68.4375 49.667969 68.292969 49.460938 C 68.148438 49.257812 68.039062 49.015625 68.0625 48.917969 C 68.101562 48.773438 72.097656 45.171875 86.28125 32.546875 C 87.828125 31.167969 88.546875 30.613281 88.679688 30.660156 C 90.203125 31.339844 92.125 31.507812 93.636719 31.085938 C 95.746094 30.503906 97.175781 29.390625 98.0625 27.664062 C 98.472656 26.863281 98.640625 26.089844 98.640625 25.015625 C 98.640625 21.714844 95.519531 18.980469 91.738281 18.980469 C 86.964844 18.980469 83.664062 23.214844 85.273438 27.265625 L 85.585938 28.074219 L 85.1875 28.472656 C 84.863281 28.789062 69.539062 42.460938 65.964844 45.628906 C 65.148438 46.34375 65.136719 46.34375 64.765625 46.199219 C 63.78125 45.785156 62.484375 45.339844 62.269531 45.339844 C 62.039062 45.339844 62.039062 45.050781 62.039062 28.761719 L 62.039062 12.1875 L 62.304688 12.113281 C 62.460938 12.078125 63 11.835938 63.527344 11.570312 C 65.292969 10.675781 66.394531 9.214844 66.792969 7.207031 C 67.175781 5.355469 66.613281 3.628906 65.160156 2.164062 C 63.480469 0.472656 60.910156 -0.21875 58.285156 0.300781 Z M 58.285156 0.300781 "/>
</g>
</svg>
