<svg id="Layer_1" data-name="Layer 1" xmlns="http://www.w3.org/2000/svg" viewBox="0 0 30 30"><defs><style>.cls-1{fill:#ededed;}.cls-2{fill:#050505;}</style></defs><circle class="cls-1" cx="15" cy="15" r="15"/><path class="cls-2" d="M23.1,11H13.77a1.1,1.1,0,0,0-1.1,1.1v6.56a1.1,1.1,0,0,0,1.1,1.1h5l2,2.05a.63.63,0,0,0,.44.19.69.69,0,0,0,.24-.05.61.61,0,0,0,.38-.57V19.79H23.1a1.1,1.1,0,0,0,1.1-1.1V12.13A1.1,1.1,0,0,0,23.1,11Zm.1,7.66a.09.09,0,0,1-.1.1H21.43a.62.62,0,0,0-.62.62v1.07L19.37,19a.75.75,0,0,0-.53-.22H13.77a.1.1,0,0,1-.1-.1V12.13a.11.11,0,0,1,.1-.1H23.1a.1.1,0,0,1,.1.1Z"/><path class="cls-2" d="M11.84,15H10.68a.74.74,0,0,0-.51.21L9,16.42v-.84A.61.61,0,0,0,8.34,15l-1.54,0,0-6,8.45,0v1a.5.5,0,0,0,1,0V9a1,1,0,0,0-1-1H6.84a1,1,0,0,0-1,1v5.92a1,1,0,0,0,1,1H8v1.4a.62.62,0,0,0,.38.57A.63.63,0,0,0,9,17.8L10.8,16h1a.51.51,0,0,0,.5-.5A.5.5,0,0,0,11.84,15Z"/><path class="cls-2" d="M18.44,14.83a.49.49,0,1,0,.48.48A.49.49,0,0,0,18.44,14.83Z"/><path class="cls-2" d="M16,14.83a.49.49,0,1,0,.49.48A.49.49,0,0,0,16,14.83Z"/><path class="cls-2" d="M20.85,14.83a.49.49,0,1,0,.48.48A.48.48,0,0,0,20.85,14.83Z"/></svg>