<?xml version="1.0" encoding="UTF-8"?>
<svg xmlns="http://www.w3.org/2000/svg" xmlns:xlink="http://www.w3.org/1999/xlink" width="33px" height="25px" viewBox="0 0 33 25" version="1.1">
<g id="surface1">
<path style=" stroke:none;fill-rule:evenodd;fill:rgb(40%,40%,40%);fill-opacity:1;" d="M 16.15625 5.832031 C 16.429688 5.832031 16.707031 6.109375 16.707031 6.390625 C 16.707031 6.734375 16.429688 7.015625 16.15625 7.015625 L 7.769531 7.015625 C 7.425781 7.015625 7.21875 6.734375 7.21875 6.390625 C 7.21875 6.109375 7.425781 5.832031 7.769531 5.832031 Z M 16.15625 8.609375 C 16.429688 8.609375 16.707031 8.890625 16.707031 9.234375 C 16.707031 9.582031 16.429688 9.792969 16.15625 9.792969 L 7.769531 9.792969 C 7.425781 9.792969 7.21875 9.582031 7.21875 9.234375 C 7.21875 8.890625 7.425781 8.609375 7.769531 8.609375 Z M 16.15625 11.457031 C 16.429688 11.457031 16.707031 11.734375 16.707031 12.015625 C 16.707031 12.359375 16.429688 12.640625 16.15625 12.640625 L 7.769531 12.640625 C 7.425781 12.640625 7.21875 12.359375 7.21875 12.015625 C 7.21875 11.734375 7.425781 11.457031 7.769531 11.457031 Z M 16.15625 14.234375 C 16.429688 14.234375 16.707031 14.515625 16.707031 14.859375 C 16.707031 15.207031 16.429688 15.417969 16.15625 15.417969 L 7.769531 15.417969 C 7.425781 15.417969 7.21875 15.207031 7.21875 14.859375 C 7.21875 14.515625 7.425781 14.234375 7.769531 14.234375 Z M 16.15625 17.082031 C 16.429688 17.082031 16.707031 17.359375 16.707031 17.707031 C 16.707031 17.984375 16.429688 18.265625 16.15625 18.265625 L 7.769531 18.265625 C 7.425781 18.265625 7.21875 17.984375 7.21875 17.707031 C 7.21875 17.359375 7.425781 17.082031 7.769531 17.082031 Z M 16.15625 19.859375 C 16.429688 19.859375 16.707031 20.140625 16.707031 20.484375 C 16.707031 20.832031 16.429688 21.109375 16.15625 21.109375 L 7.769531 21.109375 C 7.425781 21.109375 7.21875 20.832031 7.21875 20.484375 C 7.21875 20.140625 7.425781 19.859375 7.769531 19.859375 Z M 6.53125 4.167969 C 5.980469 4.167969 5.570312 4.582031 5.570312 5.140625 L 5.570312 21.734375 C 5.570312 22.292969 5.980469 22.707031 6.53125 22.707031 L 17.394531 22.707031 C 17.945312 22.707031 18.355469 22.292969 18.355469 21.734375 L 18.355469 5.140625 C 18.355469 4.582031 17.945312 4.167969 17.394531 4.167969 Z M 6.53125 4.167969 "/>
<path style=" stroke:none;fill-rule:evenodd;fill:rgb(40%,40%,40%);fill-opacity:1;" d="M 9.28125 1.042969 C 8.800781 1.042969 8.386719 1.457031 8.386719 2.015625 L 8.386719 2.984375 L 17.394531 2.984375 C 18.5625 2.984375 19.523438 3.957031 19.523438 5.140625 L 19.523438 19.859375 L 20.625 19.859375 C 21.105469 19.859375 21.519531 19.445312 21.519531 18.957031 L 21.519531 2.015625 C 21.519531 1.457031 21.105469 1.042969 20.625 1.042969 Z M 9.28125 1.042969 "/>
<path style=" stroke:none;fill-rule:evenodd;fill:rgb(40%,40%,40%);fill-opacity:1;" d="M 24.75 1.042969 C 23.855469 1.042969 23.238281 1.804688 23.238281 2.777344 L 23.238281 3.75 L 26.195312 3.75 L 26.195312 2.777344 C 26.195312 1.804688 25.574219 1.042969 24.75 1.042969 Z M 24.75 1.042969 "/>
<path style=" stroke:none;fill-rule:evenodd;fill:rgb(40%,40%,40%);fill-opacity:1;" d="M 23.238281 4.929688 L 23.238281 20.625 C 23.238281 20.695312 23.238281 20.765625 23.304688 20.832031 L 24.335938 22.570312 C 24.476562 22.640625 24.542969 22.777344 24.75 22.777344 C 24.886719 22.777344 25.023438 22.640625 25.09375 22.570312 L 26.125 20.832031 C 26.195312 20.765625 26.195312 20.695312 26.195312 20.625 L 26.195312 4.929688 Z M 23.238281 4.929688 "/>
</g>
</svg>
