<?xml version="1.0" encoding="UTF-8"?>
<svg xmlns="http://www.w3.org/2000/svg" xmlns:xlink="http://www.w3.org/1999/xlink" width="24px" height="29px" viewBox="0 0 24 28" version="1.1">
<defs>
<clipPath id="clip1">
  <path d="M 0 0.0195312 L 24 0.0195312 L 24 27.980469 L 0 27.980469 Z M 0 0.0195312 "/>
</clipPath>
</defs>
<g id="surface1">
<g clip-path="url(#clip1)" clip-rule="nonzero">
<path style=" stroke:none;fill-rule:evenodd;fill:rgb(60%,60%,60%);fill-opacity:1;" d="M 11.902344 2.617188 C 13.390625 2.617188 14.558594 3.757812 14.558594 5.210938 C 14.558594 6.5625 13.390625 7.808594 11.902344 7.808594 C 10.414062 7.808594 9.246094 6.5625 9.246094 5.210938 C 9.246094 3.757812 10.414062 2.617188 11.902344 2.617188 Z M 11.902344 0.0195312 C 8.925781 0.0195312 6.589844 2.304688 6.589844 5.210938 C 6.589844 8.015625 8.925781 10.402344 11.902344 10.402344 C 14.878906 10.402344 17.214844 8.015625 17.214844 5.210938 C 17.214844 2.304688 14.878906 0.0195312 11.902344 0.0195312 Z M 21.253906 11.855469 L 21.253906 20.890625 C 17.855469 21.304688 14.667969 22.550781 11.902344 24.523438 C 9.140625 22.550781 5.953125 21.304688 2.65625 20.890625 L 2.65625 11.855469 C 5.421875 12.375 7.972656 13.621094 10.097656 15.59375 L 11.902344 17.253906 L 13.710938 15.59375 C 15.835938 13.621094 18.386719 12.375 21.253906 11.855469 Z M 0 9.054688 L 0 23.382812 C 4.570312 23.382812 8.820312 25.042969 11.902344 27.949219 C 15.089844 25.148438 19.234375 23.382812 23.914062 23.382812 L 23.914062 9.054688 C 19.234375 9.054688 15.089844 10.816406 11.902344 13.621094 C 8.820312 10.816406 4.570312 9.054688 0 9.054688 Z M 0 9.054688 "/>
</g>
</g>
</svg>
