<?xml version="1.0" encoding="UTF-8"?>
<svg xmlns="http://www.w3.org/2000/svg" xmlns:xlink="http://www.w3.org/1999/xlink" width="75px" height="75px" viewBox="0 0 75 75" version="1.1">
<g id="surface1">
<path style=" stroke:none;fill-rule:nonzero;fill:rgb(0%,0%,0%);fill-opacity:1;" d="M 42.726562 10.882812 L 4.75 10.882812 C 2.9375 10.882812 1.464844 12.355469 1.464844 14.167969 L 1.464844 71.601562 C 1.464844 73.414062 2.9375 74.890625 4.75 74.890625 L 42.726562 74.890625 C 44.539062 74.890625 46.011719 73.414062 46.011719 71.601562 L 46.011719 14.167969 C 46.011719 12.355469 44.539062 10.882812 42.726562 10.882812 Z M 38.332031 69.257812 L 9.144531 69.257812 C 8.011719 69.257812 7.097656 68.339844 7.097656 67.210938 C 7.097656 66.078125 8.011719 65.160156 9.144531 65.160156 L 38.332031 65.160156 C 39.464844 65.160156 40.378906 66.078125 40.378906 67.210938 C 40.378906 68.339844 39.464844 69.257812 38.332031 69.257812 Z M 38.332031 59.527344 L 9.144531 59.527344 C 8.011719 59.527344 7.097656 58.609375 7.097656 57.480469 C 7.097656 56.347656 8.011719 55.429688 9.144531 55.429688 L 38.332031 55.429688 C 39.464844 55.429688 40.378906 56.347656 40.378906 57.480469 C 40.378906 58.609375 39.464844 59.527344 38.332031 59.527344 Z M 38.332031 49.796875 L 9.144531 49.796875 C 8.011719 49.796875 7.097656 48.882812 7.097656 47.75 C 7.097656 46.621094 8.011719 45.703125 9.144531 45.703125 L 38.332031 45.703125 C 39.464844 45.703125 40.378906 46.621094 40.378906 47.75 C 40.378906 48.882812 39.464844 49.796875 38.332031 49.796875 Z M 38.332031 40.070312 L 9.144531 40.070312 C 8.011719 40.070312 7.097656 39.152344 7.097656 38.019531 C 7.097656 36.890625 8.011719 35.972656 9.144531 35.972656 L 38.332031 35.972656 C 39.464844 35.972656 40.378906 36.890625 40.378906 38.019531 C 40.378906 39.152344 39.464844 40.070312 38.332031 40.070312 Z M 38.332031 30.339844 L 9.144531 30.339844 C 8.011719 30.339844 7.097656 29.421875 7.097656 28.292969 C 7.097656 27.160156 8.011719 26.242188 9.144531 26.242188 L 38.332031 26.242188 C 39.464844 26.242188 40.378906 27.160156 40.378906 28.292969 C 40.378906 29.421875 39.464844 30.339844 38.332031 30.339844 Z M 38.332031 20.609375 L 9.144531 20.609375 C 8.011719 20.609375 7.097656 19.695312 7.097656 18.5625 C 7.097656 17.429688 8.011719 16.515625 9.144531 16.515625 L 38.332031 16.515625 C 39.464844 16.515625 40.378906 17.429688 40.378906 18.5625 C 40.378906 19.695312 39.464844 20.609375 38.332031 20.609375 Z M 38.332031 20.609375 "/>
<path style=" stroke:none;fill-rule:nonzero;fill:rgb(0%,0%,0%);fill-opacity:1;" d="M 53.949219 0 L 14.480469 0 C 12.667969 0 11.191406 1.472656 11.191406 3.285156 L 11.191406 6.785156 L 42.726562 6.785156 C 46.796875 6.785156 50.109375 10.097656 50.109375 14.167969 L 50.109375 65.160156 L 53.949219 65.160156 C 55.761719 65.160156 57.238281 63.6875 57.238281 61.875 L 57.238281 3.285156 C 57.238281 1.472656 55.761719 0 53.949219 0 Z M 53.949219 0 "/>
<path style=" stroke:none;fill-rule:nonzero;fill:rgb(0%,0%,0%);fill-opacity:1;" d="M 73.535156 5.890625 C 73.535156 2.640625 71.183594 0 68.289062 0 C 65.394531 0 63.039062 2.640625 63.039062 5.890625 L 63.039062 9.320312 L 73.535156 9.320312 Z M 73.535156 5.890625 "/>
<path style=" stroke:none;fill-rule:nonzero;fill:rgb(0%,0%,0%);fill-opacity:1;" d="M 63.039062 13.417969 L 63.039062 67.59375 C 63.039062 67.894531 63.125 68.191406 63.289062 68.445312 L 67.054688 74.316406 C 67.328125 74.742188 67.792969 75 68.289062 75 C 68.785156 75 69.246094 74.742188 69.519531 74.316406 L 73.289062 68.445312 C 73.449219 68.191406 73.535156 67.894531 73.535156 67.59375 L 73.535156 13.417969 Z M 63.039062 13.417969 "/>
</g>
</svg>
