<svg version="1.1" viewBox="0.0 0.0 376.37795275590554 448.81889763779526" width="24px" height="24px" fill="none" stroke="none" stroke-linecap="square" stroke-miterlimit="10" xmlns:xlink="http://www.w3.org/1999/xlink" xmlns="http://www.w3.org/2000/svg"><clipPath id="p.0"><path d="m0 0l376.37796 0l0 448.8189l-376.37796 0l0 -448.8189z" clip-rule="nonzero"/></clipPath><g clip-path="url(#p.0)"><path fill="#000000" fill-opacity="0.0" d="m0 0l376.37796 0l0 448.8189l-376.37796 0z" fill-rule="evenodd"/><path fill="#666666" d="m186.66667 41.666668c23.333328 0 41.666656 18.333332 41.666656 41.666668c0 21.666664 -18.333328 41.666664 -41.666656 41.666664c-23.333344 0 -41.66667 -20.0 -41.66667 -41.666664c0 -23.333336 18.333328 -41.666668 41.66667 -41.666668zm0 -41.666668c-46.66667 0 -83.333336 36.666668 -83.333336 83.333336c0 44.999992 36.666664 83.333336 83.333336 83.333336c46.666656 0 83.33333 -38.333344 83.33333 -83.333336c0 -46.666668 -36.66667 -83.333336 -83.33333 -83.333336zm146.66667 190.0l0 145.0c-53.333344 6.6666565 -103.33334 26.666656 -146.66667 58.333344c-43.333344 -31.666687 -93.333336 -51.666687 -145.0 -58.333344l0 -145.0c43.333332 8.333328 83.33333 28.333328 116.66666 60.0l28.333344 26.666656l28.333328 -26.666656c33.33333 -31.666672 73.33334 -51.66667 118.33334 -60.0zm-333.33334 -45.0l0 230.0c71.666664 0 138.33333 26.666656 186.66667 73.33334c50.0 -45.0 114.999985 -73.33334 188.33333 -73.33334l0 -230.0c-73.33334 0 -138.33333 28.333328 -188.33333 73.33333c-48.333344 -45.0 -115.00001 -73.33333 -186.66667 -73.33333z" fill-rule="evenodd"/></g></svg>
