<?xml version="1.0" encoding="UTF-8"?>
<svg xmlns="http://www.w3.org/2000/svg" xmlns:xlink="http://www.w3.org/1999/xlink" width="25px" height="25px" viewBox="0 0 25 25" version="1.1">
<g id="surface1">
<path style=" stroke:none;fill-rule:nonzero;fill:rgb(0%,0%,0%);fill-opacity:1;" d="M 14.242188 3.628906 L 1.582031 3.628906 C 0.980469 3.628906 0.488281 4.117188 0.488281 4.722656 L 0.488281 23.867188 C 0.488281 24.472656 0.980469 24.964844 1.582031 24.964844 L 14.242188 24.964844 C 14.847656 24.964844 15.335938 24.472656 15.335938 23.867188 L 15.335938 4.722656 C 15.335938 4.117188 14.847656 3.628906 14.242188 3.628906 Z M 12.777344 23.085938 L 3.046875 23.085938 C 2.671875 23.085938 2.367188 22.78125 2.367188 22.402344 C 2.367188 22.027344 2.671875 21.71875 3.046875 21.71875 L 12.777344 21.71875 C 13.15625 21.71875 13.460938 22.027344 13.460938 22.402344 C 13.460938 22.78125 13.15625 23.085938 12.777344 23.085938 Z M 12.777344 19.84375 L 3.046875 19.84375 C 2.671875 19.84375 2.367188 19.535156 2.367188 19.160156 C 2.367188 18.78125 2.671875 18.476562 3.046875 18.476562 L 12.777344 18.476562 C 13.15625 18.476562 13.460938 18.78125 13.460938 19.160156 C 13.460938 19.535156 13.15625 19.84375 12.777344 19.84375 Z M 12.777344 16.597656 L 3.046875 16.597656 C 2.671875 16.597656 2.367188 16.292969 2.367188 15.917969 C 2.367188 15.539062 2.671875 15.234375 3.046875 15.234375 L 12.777344 15.234375 C 13.15625 15.234375 13.460938 15.539062 13.460938 15.917969 C 13.460938 16.292969 13.15625 16.597656 12.777344 16.597656 Z M 12.777344 13.355469 L 3.046875 13.355469 C 2.671875 13.355469 2.367188 13.050781 2.367188 12.671875 C 2.367188 12.296875 2.671875 11.992188 3.046875 11.992188 L 12.777344 11.992188 C 13.15625 11.992188 13.460938 12.296875 13.460938 12.671875 C 13.460938 13.050781 13.15625 13.355469 12.777344 13.355469 Z M 12.777344 10.113281 L 3.046875 10.113281 C 2.671875 10.113281 2.367188 9.808594 2.367188 9.429688 C 2.367188 9.054688 2.671875 8.746094 3.046875 8.746094 L 12.777344 8.746094 C 13.15625 8.746094 13.460938 9.054688 13.460938 9.429688 C 13.460938 9.808594 13.15625 10.113281 12.777344 10.113281 Z M 12.777344 6.871094 L 3.046875 6.871094 C 2.671875 6.871094 2.367188 6.566406 2.367188 6.1875 C 2.367188 5.808594 2.671875 5.503906 3.046875 5.503906 L 12.777344 5.503906 C 13.15625 5.503906 13.460938 5.808594 13.460938 6.1875 C 13.460938 6.566406 13.15625 6.871094 12.777344 6.871094 Z M 12.777344 6.871094 "/>
<path style=" stroke:none;fill-rule:nonzero;fill:rgb(0%,0%,0%);fill-opacity:1;" d="M 17.984375 0 L 4.828125 0 C 4.222656 0 3.730469 0.492188 3.730469 1.09375 L 3.730469 2.261719 L 14.242188 2.261719 C 15.597656 2.261719 16.703125 3.367188 16.703125 4.722656 L 16.703125 21.71875 L 17.984375 21.71875 C 18.585938 21.71875 19.078125 21.230469 19.078125 20.625 L 19.078125 1.09375 C 19.078125 0.492188 18.585938 0 17.984375 0 Z M 17.984375 0 "/>
<path style=" stroke:none;fill-rule:nonzero;fill:rgb(0%,0%,0%);fill-opacity:1;" d="M 24.511719 1.964844 C 24.511719 0.878906 23.726562 0 22.761719 0 C 21.796875 0 21.011719 0.878906 21.011719 1.964844 L 21.011719 3.105469 L 24.511719 3.105469 Z M 24.511719 1.964844 "/>
<path style=" stroke:none;fill-rule:nonzero;fill:rgb(0%,0%,0%);fill-opacity:1;" d="M 21.011719 4.472656 L 21.011719 22.53125 C 21.011719 22.632812 21.042969 22.730469 21.097656 22.816406 L 22.351562 24.773438 C 22.441406 24.914062 22.597656 25 22.761719 25 C 22.929688 25 23.082031 24.914062 23.171875 24.773438 L 24.429688 22.816406 C 24.484375 22.730469 24.511719 22.632812 24.511719 22.53125 L 24.511719 4.472656 Z M 21.011719 4.472656 "/>
</g>
</svg>
